<svg version="1.1" xmlns="http://www.w3.org/2000/svg" style="display: block;" viewBox="0 0 2048 2048" width="1923" height="1923" preserveAspectRatio="none">
<defs>
	<linearGradient id="Gradient1" gradientUnits="userSpaceOnUse" x1="1137.39" y1="955.357" x2="1109.11" y2="934.036">
		<stop class="stop0" offset="0" stop-opacity="1" stop-color="rgb(23,22,23)"/>
		<stop class="stop1" offset="1" stop-opacity="1" stop-color="rgb(51,50,46)"/>
	</linearGradient>
	<linearGradient id="Gradient2" gradientUnits="userSpaceOnUse" x1="1238.7" y1="660.751" x2="1228.36" y2="711.667">
		<stop class="stop0" offset="0" stop-opacity="1" stop-color="rgb(19,18,15)"/>
		<stop class="stop1" offset="1" stop-opacity="1" stop-color="rgb(45,45,46)"/>
	</linearGradient>
	<linearGradient id="Gradient3" gradientUnits="userSpaceOnUse" x1="686.212" y1="1650.53" x2="749.264" y2="1744.08">
		<stop class="stop0" offset="0" stop-opacity="1" stop-color="rgb(194,193,193)"/>
		<stop class="stop1" offset="1" stop-opacity="1" stop-color="rgb(234,234,233)"/>
	</linearGradient>
	<linearGradient id="Gradient4" gradientUnits="userSpaceOnUse" x1="1574.1" y1="1700.76" x2="1523.5" y2="1641.76">
		<stop class="stop0" offset="0" stop-opacity="1" stop-color="rgb(2,3,3)"/>
		<stop class="stop1" offset="1" stop-opacity="1" stop-color="rgb(45,41,37)"/>
	</linearGradient>
	<linearGradient id="Gradient5" gradientUnits="userSpaceOnUse" x1="-14.0619" y1="1305.42" x2="21.8376" y2="1298.43">
		<stop class="stop0" offset="0" stop-opacity="1" stop-color="rgb(114,109,110)"/>
		<stop class="stop1" offset="1" stop-opacity="1" stop-color="rgb(123,126,123)"/>
	</linearGradient>
	<linearGradient id="Gradient6" gradientUnits="userSpaceOnUse" x1="1023.6" y1="2046.8" x2="1021.86" y2="1412.2">
		<stop class="stop0" offset="0" stop-opacity="1" stop-color="rgb(82,81,81)"/>
		<stop class="stop1" offset="1" stop-opacity="1" stop-color="rgb(139,138,136)"/>
	</linearGradient>
</defs>
<path transform="translate(0,0)" fill="rgb(14,14,12)" d="M 0 0 L 16.9682 0 L 150.033 0 L 254.55 0 L 263.658 0 L 416.035 0 L 496.763 0 L 509.957 0 L 558.282 0 L 1365.75 0 L 1425.26 0 L 1436.93 0 L 1577.88 0 L 1587.51 0 L 1971.65 0 L 2048 0 L 2048 84.6065 L 2048 96.0678 L 2048 149.315 L 2048 162.236 L 2048 186.514 L 2048 200.046 L 2048 259.981 L 2048 272.98 L 2048 1287.08 L 2048 1300.06 L 2048 1391.89 L 2048 1406.03 L 2048 1942.12 L 2048 2020.91 L 2048 2039.23 L 2048 2048 L 14.9369 2048 L 0 2048 L 0 2038.76 L 0 2013.85 L 0 1410.6 L 0 1398.92 L 0 1209.97 L 0 207.722 L 0 18.9275 L 0 0 z"/>
<path transform="translate(0,0)" fill="rgb(248,248,247)" d="M 11.2623 1408.76 C 40.2431 1403.58 65.9327 1404.5 95.2523 1404.75 C 170.361 1405.4 245.8 1403.8 320.883 1405.06 C 323.324 1425.33 326.307 1439.22 336.782 1457.16 C 335.072 1460.18 333.406 1462.63 334.696 1466.08 C 342.087 1485.86 372.927 1506.23 390.405 1515.12 C 413.671 1526.94 442.134 1536.9 466.688 1544.52 C 522.186 1561.73 592.684 1585.32 650.4 1588.23 C 662.584 1646.73 693.091 1721.29 731.412 1767.5 C 772.509 1821.26 830.458 1861.58 893.734 1884.78 C 894.274 1896.47 895.21 1906.8 905.405 1914.61 C 954.505 1952.21 1032.74 1958.26 1092.5 1955.81 C 1133.87 1954.12 1240.02 1939.8 1239.59 1887.26 C 1299.98 1864.39 1345.6 1836.89 1388.08 1786.66 C 1400.14 1772.1 1406.76 1761.27 1417.38 1746.12 C 1433.31 1764.04 1449.93 1754.45 1467.98 1746.82 C 1479.4 1750.77 1482.54 1752.33 1494.3 1748.99 C 1495.06 1748.86 1495.66 1748.78 1496.77 1748.47 C 1541.02 1736.22 1568.27 1717.02 1591.36 1676.45 C 1600.33 1660.69 1614.68 1611.09 1610.03 1595.55 C 1667.93 1562.75 1728.3 1529.43 1781.96 1490.02 C 1812.58 1467.52 1839.19 1443.79 1846.37 1405 C 1910.99 1405.28 1984.16 1403.15 2048 1406.03 L 2048 1942.12 L 2048 2020.91 L 2048 2039.23 L 2048 2048 L 14.9369 2048 L 0 2048 L 0 2038.76 L 0 2013.85 L 0 1410.6 L 11.2623 1408.76 z"/>
<path transform="translate(0,0)" fill="rgb(212,212,211)" d="M 731.412 1767.5 C 772.509 1821.26 830.458 1861.58 893.734 1884.78 C 894.274 1896.47 895.21 1906.8 905.405 1914.61 C 954.505 1952.21 1032.74 1958.26 1092.5 1955.81 C 1133.87 1954.12 1240.02 1939.8 1239.59 1887.26 C 1299.98 1864.39 1345.6 1836.89 1388.08 1786.66 C 1389.61 1787.66 1392.72 1789.72 1393.82 1791.01 C 1407.19 1806.71 1416.51 1825.31 1416.21 1845.98 C 1415.89 1868.1 1398.48 1893.48 1383.06 1907.43 C 1302.6 1980.21 1144.98 1995.53 1040.77 1991.79 C 942.316 1988.25 789.057 1965.5 718.407 1891.94 C 704.455 1877.41 694.053 1858.52 695.24 1837.89 C 696.855 1809.82 711.006 1786.17 731.412 1767.5 z"/>
<path transform="translate(0,0)" fill="url(#Gradient6)" d="M 0 1410.6 L 11.2623 1408.76 L 7.24722 1410.74 C 6.26455 1414.35 6.9816 1448.3 7.0111 1453.83 L 7.04344 1545.74 L 7.00121 1846.85 C 7.00698 1892.95 6.89594 1939.05 6.8351 1985.15 C 6.89032 1990.99 7.63938 2000.62 10.7645 2005.4 C 16.2827 2013.83 30.0364 2032.08 40.2707 2033.65 C 53.4354 2035.67 71.2266 2035.12 84.8296 2035.15 L 161.646 2035.21 L 458.726 2035.22 L 1696.23 2035.24 L 1901.66 2035.17 L 1969.37 2035.29 C 1980.33 2035.3 2010.56 2037.15 2018.92 2031.49 C 2029.19 2024.55 2042.94 2007.44 2044.78 1994.95 C 2047.98 1978.52 2045.14 1958.15 2046.69 1942.66 L 2048 1942.12 L 2048 2020.91 L 2048 2039.23 L 2048 2048 L 14.9369 2048 L 0 2048 L 0 2038.76 L 0 2013.85 L 0 1410.6 z"/>
<path transform="translate(0,0)" fill="rgb(212,212,211)" d="M 0 2013.85 C 4.02349 2020.53 7.70604 2026.18 12.8742 2032.07 C 14.9134 2034.4 20.7824 2039.94 20.8904 2042.51 L 14.9369 2048 L 0 2048 L 0 2038.76 L 0 2013.85 z"/>
<path transform="translate(0,0)" fill="rgb(57,57,56)" d="M 0 2038.76 C 9.01968 2038.51 12.531 2038.38 20.8904 2042.51 L 14.9369 2048 L 0 2048 L 0 2038.76 z"/>
<path transform="translate(0,0)" fill="rgb(212,212,211)" d="M 2034.27 2038.57 C 2039.07 2032.73 2043.44 2026.96 2048 2020.91 L 2048 2039.23 L 2034.27 2038.57 z"/>
<path transform="translate(0,0)" fill="rgb(14,14,12)" d="M 242.133 1594.32 C 221.311 1574.67 199.061 1556.54 178.091 1536.95 C 169.492 1528.92 145.022 1510.64 143.875 1498.32 C 142.444 1482.94 158.331 1471.46 172.59 1472.56 C 179.214 1472.68 182.89 1475.12 187.791 1479.33 C 209.844 1499.25 231.362 1520.17 252.848 1540.69 L 376.301 1658.69 C 416.745 1697.25 456.948 1736.06 496.908 1775.11 C 511.082 1789.05 525.301 1802.86 539.672 1816.57 C 543.205 1819.95 546.554 1827.98 545.821 1832.94 C 544.271 1843.42 537.413 1845.92 528.721 1848.68 C 513.836 1842.15 486.938 1814.77 473.215 1802.38 C 454.447 1785.67 435.781 1768.85 417.218 1751.91 C 412.993 1748.03 392.988 1729.32 388.844 1726.83 C 381.409 1725.15 360.319 1701.37 352.255 1695.93 C 344.562 1690.73 344.863 1694.41 339.028 1691.27 C 335.031 1689.12 331.371 1677.03 327.081 1673.21 C 322.314 1668.96 314.934 1663.86 310.557 1659.58 C 296.216 1645.36 280.894 1632.17 266.035 1618.54 C 260.813 1613.75 243.643 1599.96 242.133 1594.32 z"/>
<path transform="translate(0,0)" fill="rgb(212,212,211)" d="M 242.133 1594.32 C 269.727 1617.22 298.911 1645.59 326.246 1669.71 C 343.213 1684.68 374.885 1711.36 388.844 1726.83 C 381.409 1725.15 360.319 1701.37 352.255 1695.93 C 344.562 1690.73 344.863 1694.41 339.028 1691.27 C 335.031 1689.12 331.371 1677.03 327.081 1673.21 C 322.314 1668.96 314.934 1663.86 310.557 1659.58 C 296.216 1645.36 280.894 1632.17 266.035 1618.54 C 260.813 1613.75 243.643 1599.96 242.133 1594.32 z"/>
<path transform="translate(0,0)" fill="rgb(164,163,163)" d="M 171.663 1480.09 C 176.309 1481.25 178.224 1482.19 181.823 1485.45 C 210.908 1511.79 239.206 1539.52 267.605 1566.53 C 324.688 1620.68 381.421 1675.21 437.798 1730.1 L 498.876 1789.16 C 510.218 1800.02 529.032 1816.72 537.732 1828.53 C 534.432 1833.1 533.166 1836.35 528.169 1837.58 L 525.118 1835.22 C 511.171 1824.26 489.181 1802.71 475.15 1789.99 L 366.223 1690.92 L 223.625 1562.55 C 203.232 1544.22 173.079 1518.85 154.534 1497.98 C 148.242 1490.89 165 1482.32 171.663 1480.09 z"/>
<path transform="translate(0,0)" fill="rgb(14,14,12)" d="M 93.2874 1542.55 C 88.1697 1536.74 87.0568 1533.1 87.4618 1524.84 C 87.771 1517.26 91.2437 1510.16 97.0352 1505.27 C 101.951 1501.18 108.307 1499.25 114.664 1499.92 C 122.003 1500.65 126.559 1504.67 132.117 1509.57 C 152.103 1527.17 171.729 1545.81 191.292 1563.9 C 221.931 1592.12 252.848 1620.03 284.039 1647.64 L 417.596 1768.21 C 435.711 1784.42 453.444 1801.06 470.779 1818.1 C 475.343 1822.51 479.915 1826.88 484.434 1831.39 C 491.094 1838.05 499.028 1844.01 497.845 1854.57 C 497.312 1858.69 493.72 1862.67 490.38 1864.87 C 483.375 1869.47 476.629 1866.79 470.75 1861.89 C 441.04 1837.13 411.997 1811.56 382.569 1786.47 L 264.982 1687.67 C 238.61 1665.56 211.619 1642.27 184.954 1620.61 C 177.447 1619.05 170.916 1611.49 164.96 1606.4 L 129.478 1576.09 C 126.236 1573.34 123.393 1570.25 119.082 1570.59 C 122.349 1573.64 124.112 1575.01 126.577 1578.67 C 121.526 1577.37 97.3701 1557.58 93.9328 1551.35 C 91.5672 1547.07 92.3541 1546.82 93.2874 1542.55 z"/>
<path transform="translate(0,0)" fill="rgb(212,212,211)" d="M 93.2874 1542.55 C 112.505 1558.65 131.626 1574.87 150.651 1591.19 C 160.679 1599.74 175.723 1611.76 184.954 1620.61 C 177.447 1619.05 170.916 1611.49 164.96 1606.4 L 129.478 1576.09 C 126.236 1573.34 123.393 1570.25 119.082 1570.59 C 122.349 1573.64 124.112 1575.01 126.577 1578.67 C 121.526 1577.37 97.3701 1557.58 93.9328 1551.35 C 91.5672 1547.07 92.3541 1546.82 93.2874 1542.55 z"/>
<path transform="translate(0,0)" fill="rgb(164,163,163)" d="M 477.541 1853.03 C 470.648 1848.69 452.071 1832.44 444.998 1826.49 L 379.079 1770.84 L 201.298 1621.21 C 170.693 1595.54 126.842 1560.81 98.9496 1531.01 C 97.1062 1529.04 96.285 1523.88 97.2168 1521.11 C 98.6682 1516.79 101.527 1513.05 105.479 1510.66 C 109.191 1508.42 113.207 1507.98 117.189 1509.27 C 120.145 1510.23 127.687 1516.45 129.569 1518.24 C 159.759 1546.84 481.1 1833.22 484.581 1841.89 L 483.041 1843.91 L 484.21 1845.04 L 487.326 1844.49 C 489.232 1846.91 488.609 1845.51 488.692 1849.03 C 486.721 1852.17 485.787 1852.3 482.462 1853.86 C 480.796 1853.72 478.842 1853.79 477.541 1853.03 z"/>
<path transform="translate(0,0)" fill="rgb(122,124,124)" d="M 477.541 1853.03 C 480.211 1849.96 479.804 1847.5 483.041 1843.91 L 484.21 1845.04 L 487.326 1844.49 C 489.232 1846.91 488.609 1845.51 488.692 1849.03 C 486.721 1852.17 485.787 1852.3 482.462 1853.86 C 480.796 1853.72 478.842 1853.79 477.541 1853.03 z"/>
<path transform="translate(0,0)" fill="rgb(164,213,234)" d="M 509.957 0 L 558.282 0 L 1365.75 0 L 1425.26 0 L 1436.93 0 L 1577.88 0 L 1587.51 0 L 1971.65 0 L 2048 0 L 2048 84.6065 L 2048 96.0678 L 2048 149.315 L 2048 162.236 L 2048 186.514 L 2048 200.046 L 2048 259.981 L 2048 272.98 L 2048 1287.08 L 2048 1300.06 C 2027.82 1299.07 2006.95 1299.85 1986.71 1299.46 C 1931.35 1298.38 1873.74 1300.56 1818.63 1298.68 C 1815.17 1294.82 1812.68 1291.88 1810.85 1287.06 C 1805.34 1277.38 1765.06 1236.67 1756.22 1227.83 C 1768.15 1122.76 1775.78 1015.89 1785.77 910.516 C 1790.19 863.782 1794.35 817.024 1798.27 770.245 C 1800.81 740.381 1803.79 708.98 1803.96 679.055 C 1803.8 664.331 1802.36 653.497 1795.15 640.386 C 1779.28 611.509 1734.51 600.824 1705.98 615.434 C 1696.47 620.304 1692.74 629.489 1690.39 639.557 C 1643.46 621.551 1568.33 601.326 1517.73 592.962 C 1517.92 591.378 1518.09 589.792 1518.24 588.204 C 1538.58 364.995 1386.03 125.745 1153.21 100.597 C 1121.53 97.1739 1091.34 99.9124 1066.56 120.741 C 1065.29 119.572 1061.58 116.071 1060.38 115.356 C 1041.72 104.385 1013.96 103.228 992.979 105.716 C 791.103 129.654 646.93 316.943 627.497 511.496 C 624.404 542.458 622.477 569.977 625.863 601.091 C 597.437 605.964 543.078 620.722 516.194 630.724 C 513.848 623.87 514.563 521.994 514.418 506.895 L 510.844 58.4401 C 509.251 47.493 509.954 12.5224 509.957 0 z"/>
<path transform="translate(0,0)" fill="rgb(248,248,247)" d="M 1436.93 0 L 1577.88 0 L 1587.51 0 L 1971.65 0 L 2048 0 L 2048 84.6065 L 2048 96.0678 L 2048 149.315 L 2048 162.236 L 2048 186.514 C 2039.72 189.048 1971.42 186.676 1956.91 186.484 L 1687.3 182.434 L 1573.09 180.666 C 1556.25 180.424 1528.86 180.991 1512.87 179.447 C 1511.48 177.433 1511.47 175.713 1510.94 173.155 C 1515.42 166.972 1519.84 160.756 1524.22 154.508 C 1524.76 111.015 1525.06 67.5189 1525.13 24.0224 C 1524.68 18.7767 1524.94 10.3433 1524.96 4.79852 C 1519.54 4.93408 1517.32 4.90993 1511.97 4.19119 C 1508.75 3.55997 1506.67 2.74774 1503.66 3.90964 C 1501.65 6.01745 1501.8 7.93638 1501.43 10.8927 C 1501.17 8.34866 1501.04 8.067 1500.23 5.6121 C 1494.21 4.52595 1447.84 5.46245 1437.82 5.58038 L 1436.93 0 z"/>
<path transform="translate(0,0)" fill="rgb(164,213,234)" d="M 1577.88 0 L 1587.51 0 L 1971.65 0 L 2048 0 L 2048 84.6065 L 2048 96.0678 C 2023.6 95.4914 1998.03 95.9617 1973.47 95.7041 L 1774 93.8154 L 1647.72 92.6433 C 1637.81 92.5749 1587.28 91.0824 1581.49 93.9397 C 1572.25 90.4234 1575.28 81.5164 1574.88 72.5482 C 1574.84 50.1013 1575.14 27.6551 1575.79 5.21742 C 1576.17 2.42313 1576.38 2.46468 1577.88 0 z"/>
<path transform="translate(0,0)" fill="rgb(57,57,56)" d="M 1577.88 0 L 1587.51 0 C 1589.79 15.3002 1586.99 44.056 1587.64 60.5383 C 1587.86 66.0222 1587.28 75.2399 1588.23 80.3732 C 1619.91 79.341 1655.93 80.5046 1687.91 80.8394 L 1842.5 82.1339 L 1981.08 83.4365 C 2000.1 83.649 2026.97 82.9874 2045.05 84.1094 L 2048 84.6065 L 2048 96.0678 C 2023.6 95.4914 1998.03 95.9617 1973.47 95.7041 L 1774 93.8154 L 1647.72 92.6433 C 1637.81 92.5749 1587.28 91.0824 1581.49 93.9397 C 1572.25 90.4234 1575.28 81.5164 1574.88 72.5482 C 1574.84 50.1013 1575.14 27.6551 1575.79 5.21742 C 1576.17 2.42313 1576.38 2.46468 1577.88 0 z"/>
<path transform="translate(0,0)" fill="rgb(103,133,140)" d="M 1587.51 0 L 1971.65 0 C 1983.22 3.2349 2014.72 2.64721 2021.36 7.29277 C 2004.84 4.98596 1978.52 6.2139 1960.65 5.84581 C 1881.36 7.58373 1794.67 5.85278 1715.13 5.83701 L 1635.69 5.99547 C 1623.58 6.02624 1600.29 6.65244 1589.04 5.09025 L 1588.86 54.7801 C 1588.8 60.8773 1588.94 74.7555 1588.23 80.3732 C 1587.28 75.2399 1587.86 66.0222 1587.64 60.5383 C 1586.99 44.056 1589.79 15.3002 1587.51 0 z"/>
<path transform="translate(0,0)" fill="rgb(122,124,124)" d="M 1587.51 0 L 1971.65 0 C 1983.22 3.2349 2014.72 2.64721 2021.36 7.29277 C 2004.84 4.98596 1978.52 6.2139 1960.65 5.84581 C 1953.19 2.95513 1916.19 5.26137 1904.7 4.54568 C 1811.67 -1.25306 1718.56 3.132 1625.42 1.74504 C 1615.14 1.59197 1600.08 4.24915 1589.04 5.09025 L 1588.86 54.7801 C 1588.8 60.8773 1588.94 74.7555 1588.23 80.3732 C 1587.28 75.2399 1587.86 66.0222 1587.64 60.5383 C 1586.99 44.056 1589.79 15.3002 1587.51 0 z"/>
<path transform="translate(0,0)" fill="rgb(107,131,142)" d="M 1971.65 0 L 2048 0 L 2048 84.6065 L 2045.05 84.1094 C 2047.94 52.0138 2050.41 27.3957 2021.36 7.29277 C 2014.72 2.64721 1983.22 3.2349 1971.65 0 z"/>
<path transform="translate(0,0)" fill="rgb(248,248,247)" d="M 1534.56 155.412 C 1570.93 156.828 1612 155.706 1649.03 156.36 L 2048 162.236 L 2048 186.514 C 2039.72 189.048 1971.42 186.676 1956.91 186.484 L 1687.3 182.434 L 1573.09 180.666 C 1556.25 180.424 1528.86 180.991 1512.87 179.447 C 1523.56 170.743 1526.47 166.817 1534.56 155.412 z"/>
<path transform="translate(0,0)" fill="rgb(57,57,56)" d="M 1436.93 0 L 1577.88 0 C 1576.38 2.46468 1576.17 2.42313 1575.79 5.21742 C 1575.14 27.6551 1574.84 50.1013 1574.88 72.5482 C 1574.62 75.3014 1574.12 87.2368 1573.69 88.6069 C 1568.9 103.704 1557.16 116.361 1548.73 129.614 C 1546.13 133.692 1543.48 139.328 1540.67 143.05 C 1547.61 144.77 1566.51 144.379 1574.11 143.849 L 1902.29 148.038 L 1996.76 149.153 C 2010.71 149.329 2034.65 150.319 2048 149.315 L 2048 162.236 L 1649.03 156.36 C 1612 155.706 1570.93 156.828 1534.56 155.412 C 1526.47 166.817 1523.56 170.743 1512.87 179.447 C 1511.48 177.433 1511.47 175.713 1510.94 173.155 C 1515.42 166.972 1519.84 160.756 1524.22 154.508 C 1524.76 111.015 1525.06 67.5189 1525.13 24.0224 C 1524.68 18.7767 1524.94 10.3433 1524.96 4.79852 C 1519.54 4.93408 1517.32 4.90993 1511.97 4.19119 C 1508.75 3.55997 1506.67 2.74774 1503.66 3.90964 C 1501.65 6.01745 1501.8 7.93638 1501.43 10.8927 C 1501.17 8.34866 1501.04 8.067 1500.23 5.6121 C 1494.21 4.52595 1447.84 5.46245 1437.82 5.58038 L 1436.93 0 z"/>
<path transform="translate(0,0)" fill="rgb(248,248,247)" d="M 1436.93 0 L 1577.88 0 C 1576.38 2.46468 1576.17 2.42313 1575.79 5.21742 C 1575.14 27.6551 1574.84 50.1013 1574.88 72.5482 C 1574.62 75.3014 1574.12 87.2368 1573.69 88.6069 C 1568.9 103.704 1557.16 116.361 1548.73 129.614 C 1546.13 133.692 1543.48 139.328 1540.67 143.05 C 1537.83 143.76 1537.97 143.767 1535.06 143.546 C 1533.88 139.899 1535.09 89.6984 1535.13 81.5101 C 1533.27 63.9844 1536.52 25.06 1534.37 5.66505 C 1533.82 5.10595 1533.28 4.54686 1532.73 3.98777 C 1528.53 3.61911 1530.05 2.96417 1527.11 4.62704 C 1525.35 8.91487 1525.53 18.4415 1525.13 24.0224 C 1524.68 18.7767 1524.94 10.3433 1524.96 4.79852 C 1519.54 4.93408 1517.32 4.90993 1511.97 4.19119 C 1508.75 3.55997 1506.67 2.74774 1503.66 3.90964 C 1501.65 6.01745 1501.8 7.93638 1501.43 10.8927 C 1501.17 8.34866 1501.04 8.067 1500.23 5.6121 C 1494.21 4.52595 1447.84 5.46245 1437.82 5.58038 L 1436.93 0 z"/>
<path transform="translate(0,0)" fill="rgb(122,124,124)" d="M 1436.93 0 L 1577.88 0 C 1576.38 2.46468 1576.17 2.42313 1575.79 5.21742 C 1562.47 5.14675 1549.16 5.14428 1535.84 5.21001 C 1535.92 24.5919 1537.05 63.2788 1535.13 81.5101 C 1533.27 63.9844 1536.52 25.06 1534.37 5.66505 C 1533.82 5.10595 1533.28 4.54686 1532.73 3.98777 C 1528.53 3.61911 1530.05 2.96417 1527.11 4.62704 C 1525.35 8.91487 1525.53 18.4415 1525.13 24.0224 C 1524.68 18.7767 1524.94 10.3433 1524.96 4.79852 C 1519.54 4.93408 1517.32 4.90993 1511.97 4.19119 C 1508.75 3.55997 1506.67 2.74774 1503.66 3.90964 C 1501.65 6.01745 1501.8 7.93638 1501.43 10.8927 C 1501.17 8.34866 1501.04 8.067 1500.23 5.6121 C 1494.21 4.52595 1447.84 5.46245 1437.82 5.58038 L 1436.93 0 z"/>
<path transform="translate(0,0)" fill="rgb(122,124,124)" d="M 1540.67 143.05 C 1543.48 139.328 1546.13 133.692 1548.73 129.614 C 1557.16 116.361 1568.9 103.704 1573.69 88.6069 C 1574.12 87.2368 1574.62 75.3014 1574.88 72.5482 C 1575.28 81.5164 1572.25 90.4234 1581.49 93.9397 C 1568.3 112.165 1559.53 127.106 1543.41 143.251 C 1552.6 143.184 1565.26 142.762 1574.11 143.849 C 1566.51 144.379 1547.61 144.77 1540.67 143.05 z"/>
<path transform="translate(0,0)" fill="rgb(248,248,247)" d="M 1425.26 0 L 1436.93 0 L 1437.82 5.58038 C 1447.84 5.46245 1494.21 4.52595 1500.23 5.6121 C 1501.04 8.067 1501.17 8.34866 1501.43 10.8927 C 1501.8 7.93638 1501.65 6.01745 1503.66 3.90964 C 1506.67 2.74774 1508.75 3.55997 1511.97 4.19119 C 1517.32 4.90993 1519.54 4.93408 1524.96 4.79852 C 1524.94 10.3433 1524.68 18.7767 1525.13 24.0224 C 1525.06 67.5189 1524.76 111.015 1524.22 154.508 C 1519.84 160.756 1515.42 166.972 1510.94 173.155 C 1511.47 175.713 1511.48 177.433 1512.87 179.447 C 1528.86 180.991 1556.25 180.424 1573.09 180.666 L 1687.3 182.434 L 1956.91 186.484 C 1971.42 186.676 2039.72 189.048 2048 186.514 L 2048 200.046 L 2048 259.981 L 2048 272.98 C 2003.65 272.831 1959.31 272.296 1914.98 271.376 L 1648.49 267.347 L 1506.73 265.471 C 1484.95 265.184 1462.77 265.319 1440.99 264.657 C 1437.09 264.539 1433.17 261.94 1429.77 259.927 C 1426.81 256.563 1425.19 254.541 1424.66 249.982 C 1422.89 234.8 1423.72 217.621 1423.79 202.212 L 1424.16 113.087 C 1425.22 104.559 1424.96 83.1382 1424.97 73.8695 C 1424.77 49.246 1424.87 24.6211 1425.26 0 z"/>
<path transform="translate(0,0)" fill="rgb(14,14,12)" d="M 1425.26 0 L 1436.93 0 L 1437.82 5.58038 C 1437.98 49.4708 1437.89 93.3618 1437.57 137.251 C 1437.48 151.904 1435.08 240.721 1438.49 249.853 C 1443.54 253.729 1510.29 253.064 1522.98 253.191 L 1891.88 258.31 L 1997.71 259.782 C 2007.5 259.9 2039.44 260.941 2048 259.981 L 2048 272.98 C 2003.65 272.831 1959.31 272.296 1914.98 271.376 L 1648.49 267.347 L 1506.73 265.471 C 1484.95 265.184 1462.77 265.319 1440.99 264.657 C 1437.09 264.539 1433.17 261.94 1429.77 259.927 C 1426.81 256.563 1425.19 254.541 1424.66 249.982 C 1422.89 234.8 1423.72 217.621 1423.79 202.212 L 1424.16 113.087 C 1425.22 104.559 1424.96 83.1382 1424.97 73.8695 C 1424.77 49.246 1424.87 24.6211 1425.26 0 z"/>
<path transform="translate(0,0)" fill="rgb(57,57,56)" d="M 1501.43 10.8927 C 1501.8 7.93638 1501.65 6.01745 1503.66 3.90964 C 1506.67 2.74774 1508.75 3.55997 1511.97 4.19119 C 1517.32 4.90993 1519.54 4.93408 1524.96 4.79852 C 1524.94 10.3433 1524.68 18.7767 1525.13 24.0224 C 1525.06 67.5189 1524.76 111.015 1524.22 154.508 C 1519.84 160.756 1515.42 166.972 1510.94 173.155 C 1511.47 175.713 1511.48 177.433 1512.87 179.447 C 1528.86 180.991 1556.25 180.424 1573.09 180.666 L 1687.3 182.434 L 1956.91 186.484 C 1971.42 186.676 2039.72 189.048 2048 186.514 L 2048 200.046 C 2021.23 198.368 1990.54 199.07 1963.3 198.59 L 1771.85 195.831 L 1608.3 193.098 C 1572.87 192.432 1534.33 191.095 1499.09 192.101 C 1500.29 150.832 1500.83 109.547 1500.7 68.2605 C 1500.81 50.499 1500.31 28.3471 1501.43 10.8927 z"/>
<path transform="translate(0,0)" fill="rgb(248,248,247)" d="M 1511.97 4.19119 C 1517.32 4.90993 1519.54 4.93408 1524.96 4.79852 C 1524.94 10.3433 1524.68 18.7767 1525.13 24.0224 C 1525.06 67.5189 1524.76 111.015 1524.22 154.508 C 1519.84 160.756 1515.42 166.972 1510.94 173.155 C 1509.4 120.036 1511.64 58.1307 1511.97 4.19119 z"/>
<path transform="translate(0,0)" fill="rgb(135,193,218)" d="M 1429.77 259.927 C 1433.17 261.94 1437.09 264.539 1440.99 264.657 C 1462.77 265.319 1484.95 265.184 1506.73 265.471 L 1648.49 267.347 L 1914.98 271.376 C 1959.31 272.296 2003.65 272.831 2048 272.98 L 2048 1287.08 L 2044.89 1287.55 L 2044.78 299.855 C 1989.78 300.107 1933.03 298.461 1877.93 297.546 C 1799.69 296.723 1721.45 295.279 1643.24 293.213 C 1589.19 291.827 1534.91 292.023 1480.84 290.872 C 1459.6 290.42 1460.63 289.007 1461.38 268.404 C 1459 267.105 1441.2 266.884 1432.62 264.522 C 1429.72 261.618 1430.33 263.236 1429.77 259.927 z"/>
<path transform="translate(0,0)" fill="rgb(107,131,142)" d="M 558.282 0 L 1365.75 0 C 1370.6 1.78986 1409.2 4.15256 1417.02 5.15911 C 1390.12 7.49995 1340.88 6.00809 1312.71 5.97604 L 1118.16 5.91903 L 532.613 6.00715 C 538.205 4.23176 546.935 3.37732 552.774 2.80283 L 550.474 2.88554 L 558.282 0 z"/>
<path transform="translate(0,0)" fill="rgb(57,57,56)" d="M 1810.85 1287.06 C 1865.21 1285.68 1921.16 1287.33 1975.69 1286.93 C 1985.9 1286.86 2037.74 1286.27 2044.89 1287.55 L 2048 1287.08 L 2048 1300.06 C 2027.82 1299.07 2006.95 1299.85 1986.71 1299.46 C 1931.35 1298.38 1873.74 1300.56 1818.63 1298.68 C 1815.17 1294.82 1812.68 1291.88 1810.85 1287.06 z"/>
<path transform="translate(0,0)" fill="rgb(103,133,140)" d="M 1365.75 0 L 1425.26 0 C 1424.87 24.6211 1424.77 49.246 1424.97 73.8695 C 1424.96 83.1382 1425.22 104.559 1424.16 113.087 C 1423.03 100.407 1425.45 8.62821 1423.05 5.40109 L 1417.02 5.15911 C 1409.2 4.15256 1370.6 1.78986 1365.75 0 z"/>
<path transform="translate(0,0)" fill="rgb(122,124,124)" d="M 509.957 0 L 558.282 0 L 550.474 2.88554 L 552.774 2.80283 C 546.935 3.37732 538.205 4.23176 532.613 6.00715 L 510.679 6.15672 C 510.919 20.3264 511.908 44.545 510.844 58.4401 C 509.251 47.493 509.954 12.5224 509.957 0 z"/>
<path transform="translate(0,0)" fill="rgb(248,248,247)" d="M 0 0 L 16.9682 0 L 150.033 0 L 254.55 0 L 263.658 0 L 416.035 0 L 416.981 4.50816 C 417.354 13.3243 417.71 31.3685 416.9 40.0269 L 422.092 377.328 L 424.028 489.559 C 424.393 528.452 424.282 573.645 426.282 612.272 C 386.262 623.743 370.847 646.701 370.234 688.655 C 369.721 723.713 372.186 758.811 374.221 793.804 C 377.988 859.014 382.543 924.177 387.885 989.277 L 397.749 1127.32 C 399.616 1153.46 402.062 1194.28 406.352 1219.98 C 352.402 1274.34 319.579 1307.88 319.885 1389.19 L 319.891 1390.51 C 258.915 1390.28 197.939 1390.38 136.964 1390.8 C 103.831 1390.88 37.6302 1387.94 8.71897 1395.67 C 6.2993 1396.58 2.34337 1398.21 0 1398.92 L 0 1209.97 L 0 207.722 L 0 18.9275 L 0 0 z"/>
<path transform="translate(0,0)" fill="rgb(248,248,247)" d="M 0 207.722 C 3.03856 208.949 3.56244 209.516 6.75156 209.683 C 7.65886 234.416 7.04778 262.857 7.04165 287.849 L 6.83358 416.115 C 4.99881 420.277 5.26973 422.561 6.95767 426.998 C 66.0578 427.611 126.533 424.735 185.714 423.889 C 210.749 423.532 237.08 421.978 261.971 422.178 C 263.295 592.753 269.221 765.903 272.4 936.767 L 275.344 1105.83 L 276.442 1159.23 C 276.63 1167.65 276.601 1182.89 277.795 1190.91 L 6.9337 1200.08 C 5.65505 1204.56 5.53634 1205.15 6.11096 1209.76 L 0 1209.97 L 0 207.722 z"/>
<path transform="translate(0,0)" fill="rgb(122,124,124)" d="M 0 207.722 C 3.03856 208.949 3.56244 209.516 6.75156 209.683 C 7.65886 234.416 7.04778 262.857 7.04165 287.849 L 6.83358 416.115 C 4.99881 420.277 5.26973 422.561 6.95767 426.998 L 7.07305 926.438 L 7.1104 1104.62 C 7.13623 1134.51 8.19308 1170.9 6.9337 1200.08 C 5.65505 1204.56 5.53634 1205.15 6.11096 1209.76 L 0 1209.97 L 0 207.722 z"/>
<path transform="translate(0,0)" fill="rgb(248,248,247)" d="M 0 0 L 16.9682 0 L 150.033 0 L 254.55 0 L 263.658 0 C 263.701 5.87664 263.475 11.8603 264.819 17.5648 C 264.981 34.1075 268.559 199.57 265.973 202.409 C 254.254 204.881 206.556 204.778 191.503 205.14 C 157.094 206.082 122.677 206.751 88.2566 207.148 C 71.1545 207.46 49.9311 208.532 33.1434 208.111 C 25.2671 209.165 12.4017 208.57 6.75156 209.683 C 3.56244 209.516 3.03856 208.949 0 207.722 L 0 18.9275 L 0 0 z"/>
<path transform="translate(0,0)" fill="rgb(57,57,56)" d="M 254.55 0 L 263.658 0 C 263.701 5.87664 263.475 11.8603 264.819 17.5648 C 264.981 34.1075 268.559 199.57 265.973 202.409 C 254.254 204.881 206.556 204.778 191.503 205.14 C 157.094 206.082 122.677 206.751 88.2566 207.148 C 71.1545 207.46 49.9311 208.532 33.1434 208.111 C 23.1467 206.888 11.6457 210.574 4.6012 205.573 C 2.81996 202.13 3.3146 203.969 3.51893 199.756 L 4.45069 199.526 C 6.54582 200.988 5.44447 200.663 7.66584 200.761 L 8.10811 198.968 C 14.5765 196.961 67.8531 196.306 78.3454 196.188 C 137.345 195.526 198.307 192.041 257.143 192.956 C 255.46 178.396 255.642 156.802 255.324 141.767 C 254.518 110.356 254.026 78.9374 253.849 47.5166 C 255.004 34.4902 253.784 14.6171 254.55 0 z"/>
<path transform="translate(0,0)" fill="rgb(111,111,110)" d="M 0 0 L 16.9682 0 L 150.033 0 C 131.248 2.70961 114.81 4.94118 95.7602 4.55928 C 91.8592 4.48107 81.8812 4.01494 79.3252 5.84828 C 66.2718 5.98394 41.7944 5.46872 30.1004 7.74499 C 24.637 12.9347 10.1229 29.1612 9.1563 35.1406 C 5.99354 54.7063 6.36622 89.6614 6.99112 108.752 C 7.41689 121.759 5.14133 191.742 8.10811 198.968 L 7.66584 200.761 C 5.44447 200.663 6.54582 200.988 4.45069 199.526 L 3.51893 199.756 C 3.3146 203.969 2.81996 202.13 4.6012 205.573 C 11.6457 210.574 23.1467 206.888 33.1434 208.111 C 25.2671 209.165 12.4017 208.57 6.75156 209.683 C 3.56244 209.516 3.03856 208.949 0 207.722 L 0 18.9275 L 0 0 z"/>
<path transform="translate(0,0)" fill="rgb(248,248,247)" d="M 0 0 L 16.9682 0 C 7.62259 6.73455 5.97629 9.06786 0 18.9275 L 0 0 z"/>
<path transform="translate(0,0)" fill="rgb(122,124,124)" d="M 150.033 0 L 254.55 0 C 253.784 14.6171 255.004 34.4902 253.849 47.5166 C 252.485 38.9983 253.033 14.9737 253.053 5.66289 C 197.838 6.44842 134.158 7.22354 79.3252 5.84828 C 81.8812 4.01494 91.8592 4.48107 95.7602 4.55928 C 114.81 4.94118 131.248 2.70961 150.033 0 z"/>
<path transform="translate(0,0)" fill="rgb(57,57,56)" d="M 6.83358 416.115 L 176.347 412.256 C 190.102 411.97 260.482 408.766 270.202 413.155 C 273.801 418.455 273.027 429.683 273.172 436.429 C 274.04 476.991 274.973 517.557 275.851 558.121 L 285.434 1010.3 C 286.626 1056.81 287.472 1103.33 287.972 1149.85 C 288.075 1157.91 289.776 1196.08 286.878 1200.77 C 277.753 1203.4 218.913 1204.69 204.576 1204.97 C 149.04 1206.04 90.5679 1210.04 35.4272 1210.14 C 26.8764 1209.63 14.9549 1209.86 6.11096 1209.76 C 5.53634 1205.15 5.65505 1204.56 6.9337 1200.08 L 277.795 1190.91 C 276.601 1182.89 276.63 1167.65 276.442 1159.23 L 275.344 1105.83 L 272.4 936.767 C 269.221 765.903 263.295 592.753 261.971 422.178 C 237.08 421.978 210.749 423.532 185.714 423.889 C 126.533 424.735 66.0578 427.611 6.95767 426.998 C 5.26973 422.561 4.99881 420.277 6.83358 416.115 z"/>
<path transform="translate(0,0)" fill="url(#Gradient5)" d="M 6.11096 1209.76 C 14.9549 1209.86 26.8764 1209.63 35.4272 1210.14 C 26.4854 1211.24 16.1688 1211.21 7.13986 1210.76 L 7.05405 1341.48 C 7.04165 1350.59 6.5183 1389.44 7.58025 1394.64 L 8.71897 1395.67 C 6.2993 1396.58 2.34337 1398.21 0 1398.92 L 0 1209.97 L 6.11096 1209.76 z"/>
<path transform="translate(0,0)" fill="rgb(122,124,124)" d="M 263.658 0 L 416.035 0 L 416.981 4.50816 C 417.354 13.3243 417.71 31.3685 416.9 40.0269 C 415.719 31.1836 416.235 14.4291 416.325 5.10097 C 385.461 5.57232 354.594 5.82538 323.726 5.86013 C 305.517 5.91394 283.709 5.43102 265.764 6.44064 C 264.456 8.90853 264.839 14.505 264.819 17.5648 C 263.475 11.8603 263.701 5.87664 263.658 0 z"/>
<path transform="translate(0,0)" fill="rgb(248,248,247)" d="M 1669.75 1167.8 C 1675.94 1174.34 1683.85 1180.03 1690.45 1186.17 C 1744.73 1236.69 1848.41 1317.27 1832.48 1401.33 C 1830.2 1413.84 1825.19 1425.69 1817.82 1436.05 C 1785.62 1481.33 1693.75 1531.36 1645.17 1558.74 C 1632.97 1565.63 1617.7 1573.46 1606.29 1581.3 L 1605.26 1582.01 L 1605.86 1584.66 L 1608.19 1582.71 C 1609.54 1587.24 1607.02 1589.84 1610.03 1595.55 C 1614.68 1611.09 1600.33 1660.69 1591.36 1676.45 C 1568.27 1717.02 1541.02 1736.22 1496.77 1748.47 C 1495.66 1748.78 1495.06 1748.86 1494.3 1748.99 C 1489.4 1747.14 1483.72 1750.97 1477.77 1747.08 C 1476.27 1742.15 1477.28 1741.04 1479.54 1736.39 C 1476.93 1735.69 1473.31 1734.98 1472.11 1733.09 C 1493.2 1717.67 1516.37 1705.95 1533.95 1685.68 C 1538.27 1680.71 1564.85 1655.26 1555.61 1648.24 C 1552.81 1649.56 1546.29 1659.51 1543.48 1662.95 C 1536.1 1671.89 1528.08 1680.29 1519.5 1688.09 C 1497.73 1707.91 1471.12 1723 1445.88 1737.97 C 1438.68 1742.24 1428.64 1741.71 1425.08 1733.25 C 1426.5 1725.94 1437.89 1700.54 1441.75 1693.31 C 1449.87 1693.23 1455.57 1692.07 1462.98 1688.55 C 1503.54 1669.27 1532.67 1631.58 1550.06 1591 C 1551.92 1586.66 1552.26 1581.22 1550.21 1576.91 L 1548.36 1576.57 C 1548.29 1576.62 1527.77 1612.38 1526.28 1616.35 C 1520.51 1631.75 1461.87 1694.6 1446.5 1679.3 C 1446.15 1663.24 1467.73 1627.68 1473.6 1609.77 C 1478.94 1596.88 1481.99 1583.64 1483.95 1569.97 C 1486.61 1551.51 1485.57 1538.25 1480.87 1520.38 C 1479.08 1513.57 1484.97 1491.97 1480.75 1486.5 C 1475.81 1487.87 1458.45 1515.61 1454.91 1521.75 C 1437.16 1552.58 1386.04 1549.06 1407.02 1505.48 C 1426.07 1465.88 1438.17 1424.05 1492.44 1432.17 C 1509.34 1434.13 1518.53 1440.36 1532.3 1426.95 C 1576.29 1384.09 1609.74 1322.85 1667.9 1297.43 C 1674.08 1294.73 1703.02 1288.58 1704.33 1287.06 L 1703.39 1285.4 C 1697.59 1283.47 1693.85 1283.32 1687.68 1284.01 C 1644.95 1288.76 1606.48 1321.43 1580.67 1354.01 C 1565.7 1342.22 1551.81 1329.75 1536.98 1317.89 C 1571.38 1264.98 1614.11 1200.97 1669.75 1167.8 z"/>
<path transform="translate(0,0)" fill="url(#Gradient4)" d="M 1604.04 1573.26 L 1605.26 1582.01 L 1605.86 1584.66 L 1608.19 1582.71 C 1609.54 1587.24 1607.02 1589.84 1610.03 1595.55 C 1614.68 1611.09 1600.33 1660.69 1591.36 1676.45 C 1568.27 1717.02 1541.02 1736.22 1496.77 1748.47 C 1495.66 1748.78 1495.06 1748.86 1494.3 1748.99 C 1489.4 1747.14 1483.72 1750.97 1477.77 1747.08 C 1476.27 1742.15 1477.28 1741.04 1479.54 1736.39 C 1480.54 1736.46 1481.54 1736.53 1482.54 1736.59 C 1566.92 1722.65 1595.42 1661.74 1597.87 1584.12 C 1598.07 1581.2 1598.12 1579.52 1598.8 1576.62 C 1601.25 1575.77 1602.07 1574.96 1604.04 1573.26 z"/>
<path transform="translate(0,0)" fill="rgb(57,57,56)" d="M 1591.99 1546.4 L 1595.36 1546.54 C 1599.88 1555.62 1602.98 1562.99 1604.04 1573.26 C 1602.07 1574.96 1601.25 1575.77 1598.8 1576.62 C 1598.12 1579.52 1598.07 1581.2 1597.87 1584.12 C 1595.63 1569.13 1595.95 1562.94 1591.99 1546.4 z"/>
<path transform="translate(0,0)" fill="rgb(14,14,12)" d="M 1579.27 1515.12 C 1586.7 1525.79 1590.15 1534.59 1595.36 1546.54 L 1591.99 1546.4 C 1588.26 1535.3 1582.47 1526.13 1579.27 1515.12 z"/>
<path transform="translate(0,0)" fill="rgb(248,248,247)" d="M 416.035 0 L 496.763 0 L 509.957 0 C 509.954 12.5224 509.251 47.493 510.844 58.4401 L 514.418 506.895 C 514.563 521.994 513.848 623.87 516.194 630.724 C 513.446 635.312 506.587 637.275 501.604 636.076 C 496.19 636.772 493.741 638.796 489.117 641.62 C 482.274 611.71 464.961 609.099 437.708 610.169 C 436.231 559.051 436.68 504.762 436.017 453.375 L 431.517 161.754 L 430.122 77.8248 C 429.88 53.8585 430.161 28.9361 429.032 5.07104 C 425.877 4.24686 420.319 4.43896 416.981 4.50816 L 416.035 0 z"/>
<path transform="translate(0,0)" fill="rgb(57,57,56)" d="M 496.763 0 L 509.957 0 C 509.954 12.5224 509.251 47.493 510.844 58.4401 L 514.418 506.895 C 514.563 521.994 513.848 623.87 516.194 630.724 C 513.446 635.312 506.587 637.275 501.604 636.076 C 501.948 635.776 502.335 635.519 502.637 635.176 C 504.987 632.513 494.977 60.7515 497.308 6.79482 C 497.679 5.68968 496.946 1.47819 496.763 0 z"/>
<path transform="translate(0,0)" fill="rgb(111,111,110)" d="M 416.035 0 L 496.763 0 C 496.946 1.47819 497.679 5.68968 497.308 6.79482 C 494.744 4.87233 437.641 5.48425 429.032 5.07104 C 425.877 4.24686 420.319 4.43896 416.981 4.50816 L 416.035 0 z"/>
<path transform="translate(0,0)" fill="rgb(212,212,211)" d="M 336.782 1457.16 C 383.547 1524.36 482.832 1508.74 541.638 1467.22 C 545.542 1464.41 549.37 1461.49 553.118 1458.48 C 555.103 1461.45 556.577 1462.56 559.968 1463.95 C 568.591 1467.49 577.776 1470.05 586.777 1472.54 C 611.465 1479.37 636.037 1487.04 661.058 1492.56 C 665.028 1493.44 669.318 1493.91 673.196 1494.88 C 653.75 1523.95 645.069 1553.19 650.4 1588.23 C 592.684 1585.32 522.186 1561.73 466.688 1544.52 C 442.134 1536.9 413.671 1526.94 390.405 1515.12 C 372.927 1506.23 342.087 1485.86 334.696 1466.08 C 333.406 1462.63 335.072 1460.18 336.782 1457.16 z"/>
<path transform="translate(0,0)" fill="rgb(248,248,247)" d="M 1818.63 1298.68 C 1873.74 1300.56 1931.35 1298.38 1986.71 1299.46 C 2006.95 1299.85 2027.82 1299.07 2048 1300.06 L 2048 1391.89 C 2033.28 1392.11 2015.88 1391.13 2000.54 1391.08 C 1950.07 1390.87 1899.61 1390.94 1849.14 1391.28 C 1849.22 1353.29 1839.46 1329.83 1818.63 1298.68 z"/>
<path transform="translate(0,0)" fill="rgb(248,248,247)" d="M 606.589 1404.85 C 645.562 1404.58 684.536 1404.51 723.51 1404.64 C 746.039 1404.67 771.751 1404.1 794.077 1404.93 C 747.497 1426.73 703.801 1452.05 673.196 1494.88 C 669.318 1493.91 665.028 1493.44 661.058 1492.56 C 636.037 1487.04 611.465 1479.37 586.777 1472.54 C 577.776 1470.05 568.591 1467.49 559.968 1463.95 C 556.577 1462.56 555.103 1461.45 553.118 1458.48 C 578.014 1437.66 585.368 1429.75 606.589 1404.85 z"/>
<path transform="translate(0,0)" fill="rgb(248,248,247)" d="M 682.307 1642.91 C 665.929 1607.9 656.413 1568.39 670.883 1531.32 C 702.904 1449.28 813.022 1404.43 892.667 1385.26 C 1026.64 1353.02 1176.15 1356.38 1306.25 1403.27 C 1339.96 1415.55 1387.57 1439.85 1412.37 1465.36 C 1401.54 1481.99 1386.36 1509.57 1390.75 1530.38 C 1394.64 1548.79 1413.35 1558.99 1431.09 1553.75 C 1444.51 1550.03 1453.59 1540.38 1462.35 1530.24 C 1480.82 1587.8 1452.36 1618.03 1433.71 1667.26 C 1432.31 1675.06 1427.23 1688.33 1424.37 1696.09 C 1409.98 1735.19 1385 1775.29 1353.25 1802.93 C 1340.02 1815.98 1331.18 1822.1 1316.49 1833.15 C 1309.18 1838.65 1288.66 1850.8 1279.74 1854.83 C 1263.53 1862.89 1249.95 1868.57 1233.01 1874.88 C 1224.06 1878.26 1215.03 1881.42 1205.93 1884.35 C 1187.63 1888.7 1169.88 1893.92 1151.35 1897.38 C 1093.73 1907.63 1034.68 1906.8 977.378 1894.91 C 963.659 1892.18 951.952 1888.67 938.56 1885.49 C 928.377 1883 915.078 1878.27 905.247 1874.72 C 892.509 1869.77 880.895 1865.15 868.361 1859.68 C 854.267 1852.97 834.51 1842.17 822.009 1832.69 C 812.969 1826.82 803.84 1819.58 795.203 1813.02 C 777.221 1798.4 749.745 1772.17 737.333 1752.32 C 712.078 1716.28 695.811 1685.18 682.307 1642.91 z"/>
<path transform="translate(0,0)" fill="rgb(248,248,247)" d="M 1190.16 1771.26 L 1192.92 1772.08 C 1194.51 1775.51 1192.88 1782.97 1192.29 1787.01 C 1193.65 1786.26 1230.16 1777.15 1234.56 1775.93 C 1227.71 1812.81 1219.19 1844.75 1203.05 1878.43 C 1202.84 1878.87 1205.47 1883.59 1205.93 1884.35 C 1187.63 1888.7 1169.88 1893.92 1151.35 1897.38 C 1093.73 1907.63 1034.68 1906.8 977.378 1894.91 C 963.659 1892.18 951.952 1888.67 938.56 1885.49 C 939.657 1883.47 941.692 1880.81 940.595 1878.55 C 924.8 1845.89 916.845 1812.85 909.414 1777.34 C 920.575 1783.01 939.575 1787.49 952.194 1789.82 C 952.029 1784.96 951.147 1779.91 952.543 1775.41 L 954.801 1774.47 L 995.804 1779.99 C 996.499 1784.2 996.978 1792.91 997.556 1795.65 C 1013.85 1797.14 1032.91 1799.28 1049 1799.1 L 1048.95 1784.98 C 1056.19 1785.19 1061.84 1785.19 1069.06 1784.87 C 1079.24 1785.13 1089.67 1784.42 1099.85 1783.92 L 1099.94 1798.13 C 1113.72 1798.23 1134.26 1795.99 1147.36 1792.77 C 1148.19 1789.21 1148.07 1782.73 1148.15 1778.85 C 1162.69 1776.51 1175.77 1774.43 1190.16 1771.26 z"/>
<path transform="translate(0,0)" fill="rgb(164,163,163)" d="M 1069.06 1784.87 C 1079.24 1785.13 1089.67 1784.42 1099.85 1783.92 L 1099.94 1798.13 C 1098.53 1828.49 1098.14 1863.2 1092.01 1892.7 C 1083.86 1894.35 1066.72 1898.48 1058.6 1894.7 C 1055.66 1893.32 1054.61 1888.88 1054.28 1885.72 C 1051.57 1859.38 1048.46 1825.35 1049 1799.1 L 1048.95 1784.98 C 1056.19 1785.19 1061.84 1785.19 1069.06 1784.87 z"/>
<path transform="translate(0,0)" fill="rgb(164,163,163)" d="M 954.801 1774.47 L 995.804 1779.99 C 996.499 1784.2 996.978 1792.91 997.556 1795.65 C 1000.64 1823.36 1004.94 1850.93 1010.46 1878.26 C 1011.13 1881.6 1013.52 1891.2 1012.27 1893.82 C 1006.67 1895 1004.68 1893.31 999.919 1893.13 C 979.213 1892.32 974.476 1879.51 968.112 1861.6 C 959.842 1838.33 955.491 1814.55 952.194 1789.82 C 952.029 1784.96 951.147 1779.91 952.543 1775.41 L 954.801 1774.47 z"/>
<path transform="translate(0,0)" fill="rgb(164,163,163)" d="M 1190.16 1771.26 L 1192.92 1772.08 C 1194.51 1775.51 1192.88 1782.97 1192.29 1787.01 C 1189.66 1814.89 1183.15 1842.58 1173.55 1868.87 C 1165.42 1891.12 1153.63 1894.13 1130.86 1893.38 C 1140.73 1858.04 1143.57 1829.33 1147.36 1792.77 C 1148.19 1789.21 1148.07 1782.73 1148.15 1778.85 C 1162.69 1776.51 1175.77 1774.43 1190.16 1771.26 z"/>
<path transform="translate(0,0)" fill="rgb(164,163,163)" d="M 1388.24 1695.42 C 1400.27 1688.81 1424.78 1663.23 1432.62 1661.09 C 1435.78 1663.89 1431.84 1660.69 1433.71 1667.26 C 1432.31 1675.06 1427.23 1688.33 1424.37 1696.09 C 1409.98 1735.19 1385 1775.29 1353.25 1802.93 C 1340.02 1815.98 1331.18 1822.1 1316.49 1833.15 C 1309.18 1838.65 1288.66 1850.8 1279.74 1854.83 C 1279.29 1853.89 1277.63 1850 1278.19 1849.06 C 1296.83 1817.56 1308.03 1783.38 1316.42 1747.95 C 1317.13 1745.66 1318.15 1736.64 1318.73 1733.41 C 1330.9 1727.69 1342.93 1721.67 1354.81 1715.35 C 1358.08 1711.59 1382.19 1698.73 1388.24 1695.42 z"/>
<path transform="translate(0,0)" fill="rgb(164,163,163)" d="M 1388.24 1695.42 C 1400.27 1688.81 1424.78 1663.23 1432.62 1661.09 C 1435.78 1663.89 1431.84 1660.69 1433.71 1667.26 C 1432.31 1675.06 1427.23 1688.33 1424.37 1696.09 C 1409.98 1735.19 1385 1775.29 1353.25 1802.93 C 1354.32 1797.77 1365.77 1777.29 1368.47 1770.25 C 1378.25 1744.69 1383.91 1722.27 1388.24 1695.42 z"/>
<path transform="translate(0,0)" fill="rgb(248,248,247)" d="M 1354.81 1715.35 C 1358.08 1711.59 1382.19 1698.73 1388.24 1695.42 C 1383.91 1722.27 1378.25 1744.69 1368.47 1770.25 C 1365.77 1777.29 1354.32 1797.77 1353.25 1802.93 C 1340.02 1815.98 1331.18 1822.1 1316.49 1833.15 C 1316.18 1832.63 1313.93 1828.62 1314.41 1827.98 C 1330.68 1806.1 1341.11 1779.53 1349.5 1753.89 C 1352.37 1745.11 1360.22 1721.54 1354.81 1715.35 z"/>
<path transform="translate(0,0)" fill="rgb(164,163,163)" d="M 1280.91 1747.3 C 1280.77 1753.77 1280.46 1756.81 1279.5 1763.19 C 1284.38 1760.44 1308.76 1751.37 1316.42 1747.95 C 1308.03 1783.38 1296.83 1817.56 1278.19 1849.06 C 1277.63 1850 1279.29 1853.89 1279.74 1854.83 C 1263.53 1862.89 1249.95 1868.57 1233.01 1874.88 C 1224.06 1878.26 1215.03 1881.42 1205.93 1884.35 C 1205.47 1883.59 1202.84 1878.87 1203.05 1878.43 C 1219.19 1844.75 1227.71 1812.81 1234.56 1775.93 C 1235.72 1771.42 1236.63 1765.52 1237.49 1760.84 C 1252.2 1757.13 1266.69 1752.61 1280.91 1747.3 z"/>
<path transform="translate(0,0)" fill="rgb(248,248,247)" d="M 1279.5 1763.19 C 1284.38 1760.44 1308.76 1751.37 1316.42 1747.95 C 1308.03 1783.38 1296.83 1817.56 1278.19 1849.06 C 1277.63 1850 1279.29 1853.89 1279.74 1854.83 C 1263.53 1862.89 1249.95 1868.57 1233.01 1874.88 C 1230.27 1868.92 1239.49 1862.46 1243.65 1856.52 C 1261.87 1830.52 1271.83 1793.53 1279.5 1763.19 z"/>
<path transform="translate(0,0)" fill="rgb(164,163,163)" d="M 865.793 1753.26 C 878.517 1757.26 891.36 1760.88 904.304 1764.11 C 907.867 1768.86 908.548 1771.42 909.414 1777.34 C 916.845 1812.85 924.8 1845.89 940.595 1878.55 C 941.692 1880.81 939.657 1883.47 938.56 1885.49 C 928.377 1883 915.078 1878.27 905.247 1874.72 C 892.509 1869.77 880.895 1865.15 868.361 1859.68 C 869.195 1854.04 867.974 1852.15 865.191 1847.33 C 848.293 1818.07 839.514 1789.56 831.3 1756.83 C 837.221 1755.64 854.229 1764.5 866.071 1765.38 C 865.703 1760.75 865.658 1757.91 865.793 1753.26 z"/>
<path transform="translate(0,0)" fill="rgb(248,248,247)" d="M 831.3 1756.83 C 837.221 1755.64 854.229 1764.5 866.071 1765.38 C 870.827 1794.58 884.403 1832.88 901.252 1857.4 C 904.687 1862.41 912.555 1869.76 905.247 1874.72 C 892.509 1869.77 880.895 1865.15 868.361 1859.68 C 869.195 1854.04 867.974 1852.15 865.191 1847.33 C 848.293 1818.07 839.514 1789.56 831.3 1756.83 z"/>
<path transform="translate(0,0)" fill="rgb(164,163,163)" d="M 761.504 1722.25 C 771.383 1723.86 775.507 1733.91 788.187 1731.92 C 789.277 1727.11 790.133 1727.44 793.951 1725.17 C 804.447 1730.41 818.24 1737.29 829.289 1740.85 C 829.76 1745.96 830.076 1751.92 831.3 1756.83 C 839.514 1789.56 848.293 1818.07 865.191 1847.33 C 867.974 1852.15 869.195 1854.04 868.361 1859.68 C 854.267 1852.97 834.51 1842.17 822.009 1832.69 C 812.969 1826.82 803.84 1819.58 795.203 1813.02 C 796.427 1803.03 789.647 1799.26 784.884 1789.58 C 773.62 1766.69 767.686 1746.72 761.504 1722.25 z"/>
<path transform="translate(0,0)" fill="rgb(248,248,247)" d="M 761.504 1722.25 C 771.383 1723.86 775.507 1733.91 788.187 1731.92 C 795.518 1758.65 803.632 1785.62 815.761 1810.62 C 818.431 1816.13 825.466 1824.85 824.478 1830.55 L 822.009 1832.69 C 812.969 1826.82 803.84 1819.58 795.203 1813.02 C 796.427 1803.03 789.647 1799.26 784.884 1789.58 C 773.62 1766.69 767.686 1746.72 761.504 1722.25 z"/>
<path transform="translate(0,0)" fill="rgb(164,163,163)" d="M 682.307 1642.91 C 694.067 1654.86 704.996 1666.76 718.12 1677.27 C 720.036 1678.8 726.087 1683.6 727.352 1685.13 C 735.316 1691.06 748.68 1700.52 757.361 1705.52 C 758.503 1711.04 759.481 1717.04 761.504 1722.25 C 767.686 1746.72 773.62 1766.69 784.884 1789.58 C 789.647 1799.26 796.427 1803.03 795.203 1813.02 C 777.221 1798.4 749.745 1772.17 737.333 1752.32 C 712.078 1716.28 695.811 1685.18 682.307 1642.91 z"/>
<path transform="translate(0,0)" fill="url(#Gradient3)" d="M 682.307 1642.91 C 694.067 1654.86 704.996 1666.76 718.12 1677.27 C 720.036 1678.8 726.087 1683.6 727.352 1685.13 C 724.878 1703.7 737.417 1729.13 740.819 1747.53 C 740.306 1748.75 739.792 1749.97 739.279 1751.19 L 737.333 1752.32 C 712.078 1716.28 695.811 1685.18 682.307 1642.91 z"/>
<path transform="translate(0,0)" fill="rgb(212,212,211)" d="M 995.804 1779.99 C 1011.61 1782.34 1028.3 1782.94 1044.28 1783.81 C 1051.03 1784.18 1062.8 1783.94 1069.06 1784.87 C 1061.84 1785.19 1056.19 1785.19 1048.95 1784.98 L 1049 1799.1 C 1032.91 1799.28 1013.85 1797.14 997.556 1795.65 C 996.978 1792.91 996.499 1784.2 995.804 1779.99 z"/>
<path transform="translate(0,0)" fill="rgb(212,212,211)" d="M 1099.85 1783.92 C 1114.55 1781.46 1132.22 1781.88 1148.15 1778.85 C 1148.07 1782.73 1148.19 1789.21 1147.36 1792.77 C 1134.26 1795.99 1113.72 1798.23 1099.94 1798.13 L 1099.85 1783.92 z"/>
<path transform="translate(0,0)" fill="rgb(212,212,211)" d="M 1190.16 1771.26 C 1199.54 1770.36 1227.67 1763.47 1237.49 1760.84 C 1236.63 1765.52 1235.72 1771.42 1234.56 1775.93 C 1230.16 1777.15 1193.65 1786.26 1192.29 1787.01 C 1192.88 1782.97 1194.51 1775.51 1192.92 1772.08 L 1190.16 1771.26 z"/>
<path transform="translate(0,0)" fill="rgb(212,212,211)" d="M 904.304 1764.11 C 915.171 1766.59 926.069 1768.94 936.994 1771.16 C 938.93 1771.54 954.406 1774.32 954.801 1774.47 L 952.543 1775.41 C 951.147 1779.91 952.029 1784.96 952.194 1789.82 C 939.575 1787.49 920.575 1783.01 909.414 1777.34 C 908.548 1771.42 907.867 1768.86 904.304 1764.11 z"/>
<path transform="translate(0,0)" fill="rgb(212,212,211)" d="M 1280.91 1747.3 C 1292.58 1743.69 1307.2 1736.16 1318.73 1733.41 C 1318.15 1736.64 1317.13 1745.66 1316.42 1747.95 C 1308.76 1751.37 1284.38 1760.44 1279.5 1763.19 C 1280.46 1756.81 1280.77 1753.77 1280.91 1747.3 z"/>
<path transform="translate(0,0)" fill="rgb(212,212,211)" d="M 829.289 1740.85 C 841.964 1745.52 852.863 1749.45 865.793 1753.26 C 865.658 1757.91 865.703 1760.75 866.071 1765.38 C 854.229 1764.5 837.221 1755.64 831.3 1756.83 C 830.076 1751.92 829.76 1745.96 829.289 1740.85 z"/>
<path transform="translate(0,0)" fill="rgb(212,212,211)" d="M 757.361 1705.52 C 767.804 1711.01 784.445 1719.21 793.951 1725.17 C 790.133 1727.44 789.277 1727.11 788.187 1731.92 C 775.507 1733.91 771.383 1723.86 761.504 1722.25 C 759.481 1717.04 758.503 1711.04 757.361 1705.52 z"/>
<path transform="translate(0,0)" fill="rgb(14,14,12)" d="M 675.137 1553.75 C 681.38 1560.53 679.38 1571.67 682.092 1579.94 C 705.351 1650.88 799.722 1695.66 866.175 1714.89 C 1023.9 1760.52 1205.98 1753.89 1353.16 1677.27 C 1386.12 1660.11 1423.57 1629.28 1440.22 1595.63 C 1445.58 1584.1 1450.3 1566.76 1454 1554.23 C 1457.96 1560.06 1458.38 1562.1 1459.07 1569.14 C 1458.02 1578.52 1456.76 1585.85 1453.53 1594.77 C 1435.77 1643.77 1379.3 1682.1 1332.87 1702.49 C 1204.55 1758.33 1059.52 1768.9 922.598 1741.67 C 835.571 1724.37 723.385 1686.59 678.801 1602.68 C 671.555 1589.05 669.497 1568.31 675.137 1553.75 z"/>
<path transform="translate(0,0)" fill="rgb(164,163,163)" d="M 667.532 698.561 C 597.053 542.203 667.167 320.675 794.082 212.646 C 866.284 151.188 965.284 103.982 1060.01 125.37 C 1062.82 126.004 1063.41 124.514 1065.48 122.681 C 1066.32 124.205 1066.42 124.918 1066.81 126.61 C 1072.05 128.687 1091.55 120.426 1099.03 118.564 C 1105.91 116.863 1112.9 115.655 1119.96 114.951 C 1154.31 111.501 1196.4 121.068 1229.01 132.011 C 1443.39 203.964 1554.3 475.333 1484.39 681.986 C 1467.36 668.059 1452.43 668.828 1432.37 675.385 C 1427.13 672.764 1424.36 671.139 1419.71 668.181 C 1413.57 664.275 1395.53 646.776 1390.11 646.227 C 1387.61 657.227 1417.24 676.32 1427.03 680.469 C 1425.82 681.006 1424.62 681.569 1423.43 682.157 C 1409.76 688.938 1404.01 699.943 1399.3 713.631 C 1398.73 676.906 1389.56 647.612 1363.24 622.399 C 1359.01 617.229 1352.15 612.069 1350.03 605.66 C 1348.7 601.658 1347.29 597.946 1342.74 598.119 C 1342.22 614.455 1341.77 627.854 1339.26 644.145 C 1324.44 620.998 1314.33 594.49 1297.24 572.637 C 1290.94 564.579 1283.99 550.953 1273.1 550.529 C 1271.18 554.063 1279.38 585.249 1280.54 593.214 L 1280.77 594.815 C 1268.54 587.001 1241.44 575.308 1233.34 568.508 C 1195 536.34 1168.32 484.285 1144.97 440.608 C 1141.61 434.33 1139.89 423.253 1132.54 422.32 L 1131.36 423.584 C 1128.7 468.146 1138.9 517.541 1152.03 559.933 C 1154.91 569.226 1156.12 578.103 1158.92 586.405 L 1157.6 587.16 C 1153.75 586.77 1148.15 580.705 1145.65 577.739 C 1117.78 544.643 1101.49 503.369 1087.92 462.781 C 1085.83 456.52 1084.77 436.792 1079.37 434.324 C 1077.98 435.309 1077.07 435.771 1076.96 437.744 C 1074.21 487.52 1081.16 560.56 1107.68 602.469 C 1088.27 601.728 1065.23 601.005 1045.96 599.293 C 1007.67 566.905 992.474 486.273 992.072 438.354 C 992.017 431.851 993.645 411.174 989.181 408.462 C 983.92 410.786 979.813 423.769 977.821 429.212 C 964.911 464.485 955.727 503.013 954.007 540.58 C 953.091 560.587 954.052 604.337 968.092 619.662 L 963.955 619.041 C 963.145 616.827 962.832 616.944 961.29 615.434 C 949.852 604.225 944.964 589.418 940.977 574.483 C 926.114 518.81 934.229 460.619 945.368 405.12 C 945.963 402.154 945.958 397.597 943.765 395.279 C 940.778 396.96 936.401 402.947 934.293 405.828 C 891.239 464.649 863.288 533.196 835.857 600.183 C 834.664 603.094 822.543 611.698 819.093 614.994 C 819.906 588.768 821.448 565.186 827.801 539.531 C 829.338 533.327 834.148 517.924 832.332 513.332 C 826.168 515.119 794.063 596.519 789.423 608.172 C 782.894 624.569 779.569 648.846 777.871 666.544 C 756.636 628.769 766.839 612.268 760.31 576.894 C 755.375 593.54 756.489 609.42 752.702 623.599 C 742.22 662.85 724.838 680.57 726.361 723.026 C 711.917 700.267 705.899 680.135 697.604 654.907 C 697.345 660.626 697.011 665.533 697.532 671.277 C 699.051 674.01 699.014 680.408 699.381 684.108 C 699.917 687.022 702.282 693.978 703.25 697.117 L 701.879 696.587 C 689.286 691.599 679.324 692.669 667.532 698.561 z"/>
<path transform="translate(0,0)" fill="rgb(111,111,110)" d="M 686.066 627.614 C 686.864 636.157 690.004 667.107 696.44 672.863 L 697.532 671.277 C 699.051 674.01 699.014 680.408 699.381 684.108 C 686.386 666.827 683.779 648.509 686.066 627.614 z"/>
<path transform="translate(0,0)" fill="rgb(57,57,56)" d="M 1406.83 556.992 C 1416.88 562.752 1463.59 622.421 1462.98 633.09 C 1450.41 625.258 1412.74 577.242 1405.43 560.839 C 1404.76 559.333 1405.7 558.787 1406.83 556.992 z"/>
<path transform="translate(0,0)" fill="rgb(248,248,247)" d="M 848.838 596.473 C 853.945 579.488 864.486 557.276 871.943 540.997 C 890.37 500.769 911.342 456.364 934.302 418.77 C 929.68 437.493 924.231 458.151 922.565 477.544 C 918.945 519.702 921.516 569.234 940.816 607.469 C 945.72 617.185 953.28 622.659 963.955 619.041 L 968.092 619.662 C 974.283 614.623 967.325 597.755 966.213 589.7 C 960.581 548.927 965.435 474.451 983.21 436.919 C 982.575 482.735 987.331 526.09 1007.99 567.886 C 1015.72 583.526 1030.35 609.865 1050.13 610.948 C 1065.01 611.763 1080.52 610.872 1095.48 611.338 C 1101.9 611.499 1117.95 614.181 1122.42 611.796 C 1121.93 608.283 1117.6 603.364 1115.91 600.047 C 1101.36 571.432 1083.89 512.203 1084.32 479.564 L 1084.98 479.368 C 1093.23 518.95 1136.09 607.311 1180.04 614.89 L 1181.5 613.566 C 1181.87 607.068 1173.18 592.653 1169.99 584.647 C 1256.15 568.584 1232.57 612.053 1291.85 626.438 C 1293.46 607.55 1288.47 591.649 1284.7 573.192 C 1295.65 588.687 1322.13 647.802 1337.83 651.637 C 1340.07 652.184 1342.39 652.02 1344.26 650.531 C 1350.63 645.458 1349.89 630.72 1350.13 623.293 C 1375.41 648.312 1381.93 663.725 1386.46 699.221 C 1387.45 706.95 1386.82 723.208 1393.33 728.024 C 1396.01 728.148 1398.41 727.682 1400.14 725.546 C 1412.34 710.494 1418 696.615 1436.72 687.797 C 1461.42 676.163 1484.28 691.108 1493.66 714.686 C 1504.3 741.428 1501.89 772.27 1491.12 798.483 C 1474.71 840.344 1422.19 889.251 1374.27 869.133 L 1365.92 893.426 C 1342.47 960.839 1299.35 996.05 1236.66 1027.16 C 1196.34 1047.16 1111.8 1074.33 1067.38 1074.73 C 1032.65 1075.04 950.702 1053.39 917.084 1041.36 C 865.797 1023.01 804.526 991.93 781.223 939.855 C 764.356 902.164 760.823 858.749 753.61 818.373 C 747.569 784.556 736.715 743.257 738.894 708.728 C 739.836 693.815 752.65 654.856 758.078 639.762 C 758.995 643.461 759.954 647.15 760.956 650.827 C 763.154 658.6 770.385 673.151 777.511 676.164 C 789.746 681.337 789.134 653.162 790.017 647.627 C 794.318 620.651 803.942 595.478 814.371 570.423 C 813.18 586.147 812.959 602.202 811.466 617.723 C 809.441 620.542 808.224 621.58 808.219 625.021 C 810.454 630.784 822.615 647.924 830.332 644.512 C 840.249 640.126 839.655 622.494 844.677 612.23 C 865.232 602.125 884.594 597.712 907.259 597.009 C 909.882 595.04 911.398 595.326 914.59 595.747 L 913.815 590.891 C 911.526 588.802 905.838 588.055 901.516 586.143 L 900.642 585.748 C 884.728 582.195 863.118 590.042 848.838 596.473 z"/>
<path transform="translate(0,0)" fill="rgb(57,57,56)" d="M 900.642 585.748 C 909.935 586.005 922.655 588.73 930.178 594.366 L 931.224 596.414 C 927.711 599.887 912.255 598.013 907.259 597.009 C 909.882 595.04 911.398 595.326 914.59 595.747 L 913.815 590.891 C 911.526 588.802 905.838 588.055 901.516 586.143 L 900.642 585.748 z"/>
<path transform="translate(0,0)" fill="rgb(14,14,12)" d="M 1207.32 688.21 C 1215.48 687.592 1222.27 687.17 1229.79 691.346 C 1268.04 712.608 1268.21 779.851 1226.82 797.741 C 1182.02 801.147 1167.32 749.291 1180.37 714.6 C 1185.61 700.69 1194.29 693.991 1207.32 688.21 z"/>
<path transform="translate(0,0)" fill="rgb(248,248,247)" d="M 1211.89 709.319 C 1230.74 707.626 1229.97 726.54 1214.11 731.98 C 1195.44 730.797 1195.69 713.722 1211.89 709.319 z"/>
<path transform="translate(0,0)" fill="rgb(14,14,12)" d="M 894.095 700.18 C 953.118 694.004 955.279 795.326 907.907 808.954 C 890.124 810.223 878.969 803.97 869.725 788.157 C 852.273 758.3 859.424 714.152 894.095 700.18 z"/>
<path transform="translate(0,0)" fill="rgb(248,248,247)" d="M 912.255 721.884 C 927.793 725.059 928.541 740.944 913.804 747.023 C 896.31 743.416 898.797 729.553 912.255 721.884 z"/>
<path transform="translate(0,0)" fill="url(#Gradient2)" d="M 1220.12 657.415 C 1248.77 658.236 1271.64 671.849 1288.35 695.222 C 1293.26 702.09 1300.22 716.733 1298.69 725.018 C 1296.19 728.104 1297.71 727.348 1294.4 728.039 C 1291.85 726.26 1285.75 712.218 1281.07 706.441 C 1272.3 695.608 1270.41 692.944 1259.03 684.677 C 1232.83 667.236 1208.31 668.16 1181.26 684.231 C 1175.74 687.511 1166.86 696.326 1161.38 695.996 L 1160.41 694.53 C 1161.33 690.097 1164.35 686.384 1167.24 682.951 C 1181.85 665.63 1198.07 659.305 1220.12 657.415 z"/>
<path transform="translate(0,0)" fill="rgb(14,14,12)" d="M 884.585 671.239 C 907.08 669.417 926.727 676.493 940.867 694.865 C 943.128 697.802 946.799 703.784 946.239 707.582 C 937.834 710.891 911.592 660.614 853.325 699.659 C 836.8 712.916 830.982 722.732 822.392 741.67 C 821.144 744.422 821.174 744.675 818.907 746.409 C 806.757 738.787 820.807 715.655 826.488 707.452 C 840.384 687.388 860.795 675.541 884.585 671.239 z"/>
<path transform="translate(0,0)" fill="rgb(14,14,12)" d="M 1446.83 725.963 C 1450.59 726.583 1452.68 727.287 1453.75 731.014 C 1451.62 733.849 1446.02 734.885 1441.8 737.924 C 1431.22 745.555 1425.38 752.936 1418.26 763.624 C 1437.21 786.066 1423.61 815.847 1398.35 825.447 L 1395.68 823.224 C 1394.4 814.155 1409.86 807.345 1412.92 799.229 C 1417.15 788.026 1421.48 775.152 1406.62 771.38 C 1405.83 754.567 1431.73 731.446 1446.83 725.963 z"/>
<path transform="translate(0,0)" fill="url(#Gradient1)" d="M 1157.64 912.48 C 1168.37 914.296 1161.85 926.957 1158.07 932.167 C 1142.14 954.094 1110 969.231 1084.26 974.297 C 1080.16 972.853 1081.28 974.114 1079.32 971.309 C 1081.46 966.679 1093.8 963.274 1098.94 961.243 C 1107.48 957.796 1115.62 953.433 1123.23 948.231 C 1144.71 933.572 1142.91 928.736 1156.86 913.328 L 1157.64 912.48 z"/>
<path transform="translate(0,0)" fill="rgb(57,57,56)" d="M 988.461 939.452 C 991.071 940.694 999.65 948.288 1002.78 950.639 C 1015.28 960.043 1025.94 964.109 1041.05 967.608 C 1044.42 968.388 1045.25 969.286 1046.6 971.768 C 1045.93 974.202 1046.04 974.059 1044.08 975.645 C 1028.47 974.075 987.939 963.652 984.443 946.001 C 985.466 941.78 985.192 943.051 988.461 939.452 z"/>
<path transform="translate(0,0)" fill="rgb(57,57,56)" d="M 1029.94 826.394 C 1031.1 826.727 1032.04 826.948 1033.15 827.49 C 1035.85 828.809 1037.17 833.217 1037.98 835.897 C 1039.49 840.866 1040.7 845.859 1038.07 850.423 C 1028.31 845.312 1023.3 836.424 1029.94 826.394 z"/>
<path transform="translate(0,0)" fill="rgb(164,213,234)" d="M 1364.85 930.244 C 1479.94 948.429 1535.39 1011.03 1615.76 1087.4 L 1656.39 1125.93 C 1665.36 1134.43 1676.44 1144.16 1683.65 1153.88 C 1622.28 1152.7 1526.86 1311.84 1499.43 1358.09 C 1495.87 1356.36 1491.93 1354.46 1488.71 1352.12 C 1462.57 1333.12 1438.75 1311.4 1411.28 1294.3 C 1410.73 1299.89 1410.51 1305.4 1410.5 1311.02 C 1410.46 1337.31 1408.92 1364.07 1409.77 1390.32 C 1378.37 1389.3 1346.75 1391.14 1315.41 1390.01 C 1308.35 1389.76 1293.99 1384.52 1286.97 1382.4 C 1274.23 1378.57 1262.04 1375.03 1249.03 1372.03 C 1187.39 1357.21 1124.13 1350.18 1060.74 1351.09 C 1008.72 1351.99 956.914 1357.89 906.025 1368.7 C 889.924 1372.12 873.943 1376.09 858.11 1380.59 C 850.387 1382.84 826 1390.95 819.189 1391.29 C 807.567 1391.87 789.497 1391.08 777.139 1391.04 C 775.39 1363.74 775.41 1336.31 774.848 1308.99 C 774.644 1299.09 776.364 1247.98 769.22 1243.68 C 763.597 1249.04 764.678 1285.89 763.853 1296.71 C 747.211 1317.56 699.132 1359.2 676.549 1371.26 C 669.572 1366.4 666.77 1364.09 660.8 1358.16 C 686.591 1338.56 712.349 1316.56 702.669 1280.29 C 711.504 1268.17 721.706 1251.21 712.59 1236.33 C 716.314 1224.43 716.591 1218.72 714.748 1206.77 C 754.973 1220.6 813.453 1233.37 849.246 1256.18 C 853.256 1258.73 873.559 1283.23 884.175 1292.06 C 909.385 1309.64 938.977 1319.89 969.663 1321.67 C 1007.09 1324.06 1051.34 1315.19 1080.83 1290.57 C 1099.06 1275.36 1104.45 1250.48 1086.11 1232.78 C 1060.24 1207.8 1020.4 1200.06 985.676 1198.98 L 988.381 1197.55 C 998.828 1192 1051.56 1158.23 1054.4 1148.91 C 1054.11 1145.23 1054.87 1146.62 1052.67 1144.34 C 1039.82 1141.58 984.946 1198.17 960.917 1196.58 C 951.003 1197.4 940.771 1194.65 933.001 1187.23 C 893.147 1149.17 884.544 1090.65 879.831 1040.05 C 884.515 1041.74 889.34 1043.92 893.986 1045.8 C 922.895 1057.46 954.004 1067.19 984.744 1072.54 C 999.242 1104.37 1020.04 1123.24 1052.27 1137.04 C 1059.81 1140.27 1064.3 1144.63 1073.38 1145.1 C 1115.6 1147.28 1154.9 1112.15 1181.16 1082.85 C 1186.31 1076.87 1193.2 1060.46 1199.81 1056.56 C 1210.93 1050.2 1223.84 1047.44 1235.53 1041.95 C 1267.42 1026.96 1294.37 1008.81 1321.35 986.204 C 1316.23 1052.85 1292.52 1141.88 1240.57 1186.58 C 1210.78 1212.22 1167.41 1180.35 1141.6 1163.28 C 1134.42 1158.52 1114.01 1139.45 1106.04 1147.49 C 1106.65 1152.15 1123.33 1163.77 1127.72 1167.07 C 1152.16 1185.44 1182.98 1207.48 1214.56 1208.8 C 1231.5 1209.5 1249.05 1197.29 1260.19 1185.57 C 1305.37 1137.93 1332.92 1041.82 1331.82 977.349 C 1346.51 959.727 1354.21 950.91 1364.85 930.244 z"/>
<path transform="translate(0,0)" fill="rgb(14,14,12)" d="M 1424.24 1081.41 L 1426.24 1082.93 C 1427.51 1088.54 1425.1 1098.47 1423.92 1104.29 C 1414.72 1149.77 1409.89 1195.85 1410.91 1242.27 C 1411.03 1247.62 1412.02 1265.59 1409.99 1269.51 C 1406.87 1270.54 1408.54 1270.34 1404.78 1269.24 C 1390.39 1239.58 1404.95 1108.51 1424.24 1081.41 z"/>
<path transform="translate(0,0)" fill="rgb(57,57,56)" d="M 1079.04 1169.17 C 1081.43 1168.96 1088.27 1168.38 1090.25 1169.21 C 1108.15 1176.65 1109.08 1193.58 1092.16 1202.15 C 1068.05 1203.17 1056.3 1180.47 1079.04 1169.17 z"/>
<path transform="translate(0,0)" fill="rgb(135,193,218)" d="M 1081.98 1174.98 C 1096.26 1175.1 1103.78 1188.77 1088.37 1196.95 C 1072.6 1195.78 1065.93 1182.67 1081.98 1174.98 z"/>
<path transform="translate(0,0)" fill="rgb(248,248,247)" d="M 594.766 1139.42 C 617.906 1137.43 643.789 1143.66 666.204 1148.43 C 682.471 1151.9 696.389 1161.41 689.433 1179.44 C 687.387 1184.75 680.395 1187.32 675.402 1188.68 C 663.078 1192.02 649.824 1192.08 637.247 1194.28 C 622.903 1198.07 545.335 1210.71 537.669 1214.38 C 537.704 1216.31 540.561 1218.56 542.324 1220.48 C 580.014 1220.08 620.157 1205.12 658.223 1201.46 C 669.347 1197.59 713.081 1194.53 704.802 1218.01 C 693.888 1248.96 622.351 1259.06 594.991 1268.55 C 584.146 1272.31 571.282 1272.15 563.381 1276.87 C 562.601 1279.8 562.543 1278.37 563.701 1281.28 C 573.542 1288.81 655.412 1261.45 671.303 1254.92 C 677.734 1252.28 698.843 1240.48 702.622 1240.39 C 704.199 1242.13 704.777 1243.23 704.885 1245.87 C 706.301 1280.57 654.733 1304.21 628.353 1314.56 C 620.263 1317.74 594.784 1324.4 591.71 1328.44 C 606.291 1338.67 649.421 1315.25 663.925 1307.93 C 672.857 1303.42 682.203 1294.55 691.831 1290.62 C 693.031 1292.6 693.016 1298.67 692.603 1300.6 C 686.645 1328.42 654.575 1349.27 630.931 1360.99 C 623.644 1364.61 610.488 1368.14 605.655 1371.72 C 606.93 1373.64 607.422 1374.68 608.441 1376.76 C 607.99 1385.17 572.861 1423.18 564.917 1430.97 C 563.095 1432.71 561.246 1434.43 559.373 1436.11 C 519.983 1471.46 479.699 1489.22 424.656 1489.21 C 325.519 1489.19 317.311 1372.16 353.457 1304.29 C 373.178 1267.27 426.457 1219.5 460.495 1190.26 C 457.458 1203.56 457.862 1216.65 457.634 1230.27 C 437.697 1244.04 405.551 1253.94 386.571 1270.82 L 386.507 1273.18 L 386.153 1271.33 L 386.916 1273.25 C 397.38 1272.83 447.516 1247.29 458.429 1241.36 C 460.56 1265.67 469.83 1282.91 481.05 1304.25 C 487.277 1316.09 514.231 1354.04 529.37 1351.74 C 529.066 1344.71 504.382 1323.23 499.128 1313.65 C 490.512 1297.93 471.718 1263.73 470.956 1246.41 C 469.854 1221.38 468.145 1186.48 480.816 1164.22 C 482.801 1160.73 491.543 1152.07 494.888 1147.85 L 495.49 1147.08 C 524.394 1155.1 528.478 1149.29 557.389 1143.88 C 569.538 1141.61 582.391 1140.18 594.766 1139.42 z"/>
<path transform="translate(0,0)" fill="rgb(164,213,234)" d="M 763.279 938.021 C 766.188 937.955 767.264 942.622 768.601 945.111 C 774.171 955.482 780.584 966.506 788.017 975.66 C 810.369 1003.19 838.373 1019.24 868.881 1035.89 C 864.912 1085.59 889.787 1176.38 936.234 1201.62 C 914.723 1204.61 898.962 1211.03 878.322 1216.3 C 875.406 1217.05 869.565 1215.78 866.759 1214.72 C 836.231 1203.18 805.527 1190.23 774.403 1180.42 C 775.007 1168.41 772.065 1081.97 761.278 1079.46 C 757.737 1084.49 760.233 1104.34 760.813 1110.75 L 765.922 1177.7 C 750.728 1171.73 719.203 1161.33 703.608 1157.26 C 691.888 1143.23 686.726 1140.22 669.043 1136.86 C 671.888 1084.06 597.242 1051.92 567.018 1105.13 C 558.349 1102.07 550.582 1099.25 542.052 1095.71 C 557.146 1081.46 575.555 1067.17 591.51 1053.28 C 628.454 1021.11 666.295 986.917 708.149 961.35 C 725.329 950.857 744.349 944.31 763.279 938.021 z"/>
<path transform="translate(0,0)" fill="rgb(248,248,247)" d="M 1725.9 624.228 C 1752.89 621.831 1782.7 631.57 1787.63 662.056 C 1791.85 688.111 1788.14 716.33 1786.02 742.629 L 1777.32 845.555 L 1743.01 1216.51 L 1729.23 1202.73 C 1721.88 1196.02 1696.92 1176.01 1692.87 1170.42 C 1695.25 1166.86 1697.34 1163.91 1697.29 1159.42 C 1697.1 1142.91 1671.91 1123.54 1660.02 1111.49 C 1663.84 1096.28 1666.88 1063.73 1668.74 1046.94 L 1680.41 940.46 C 1689.91 851.149 1701.06 761.939 1707.01 672.23 C 1708.6 648.292 1690.03 633.392 1725.9 624.228 z"/>
<path transform="translate(0,0)" fill="rgb(248,248,247)" d="M 444.482 624.364 C 456.665 623.428 464.215 625.534 473.419 633.739 C 474.475 637.663 475.299 641.793 476.172 645.777 C 473.01 651.902 470.533 659.361 470.494 666.255 C 470.335 694.698 472.091 724.536 473.947 752.868 C 476.65 795.426 479.749 837.958 483.243 880.458 C 484.058 889.439 485.408 898.256 486.338 907.181 C 492.343 964.843 494.593 1023.31 500.522 1080.96 C 483.065 1074.56 448.282 1059.96 434.242 1068.77 C 399.421 1090.62 412.871 1128.8 450.906 1134.58 C 457.671 1135.61 475.343 1141.07 480.889 1143.14 L 482.504 1143.75 C 478.486 1146.72 476.596 1148.7 473.096 1152.17 C 468.559 1158.07 463.391 1169.78 459.771 1173.27 C 446.813 1185.74 432.776 1197.55 419.587 1210.11 C 417.083 1175.7 414.057 1141.42 410.641 1107.1 C 408.832 1088.93 408.52 1070.01 407.101 1051.66 C 401.183 980.211 395.989 908.701 391.52 837.143 C 389.549 805.682 387.791 774.208 386.243 742.723 C 383.808 688.279 373.603 631.937 444.482 624.364 z"/>
<path transform="translate(0,0)" fill="rgb(248,248,247)" d="M 1512.06 639.425 C 1526.71 643.786 1546.62 647.36 1562.08 651.218 C 1607.84 662.635 1649.79 673.464 1693.99 690.54 C 1690.75 710.584 1678.04 877.371 1674.38 881.696 L 1670.77 881.173 C 1644.6 875.163 1615.14 866.844 1588.43 865.555 C 1560.9 840.155 1542.07 816.283 1503.22 804.059 C 1517.47 767.504 1520.65 723.802 1495.28 691.148 C 1505.41 670.813 1506.48 660.875 1512.06 639.425 z"/>
<path transform="translate(0,0)" fill="rgb(248,248,247)" d="M 628.594 649.172 L 631.511 648.808 C 632.137 649.058 632.763 649.309 633.39 649.56 C 634.818 655.139 636.402 660.675 638.157 666.162 C 640.845 674.571 643.844 682.909 647.326 691.022 C 649.842 696.886 652.489 702.685 655.143 708.481 C 625.968 737.574 631.886 789.257 647.98 823.446 C 621.044 835.896 609.254 848.824 587.839 867.562 C 571.652 868.714 533.79 878.895 517.576 883.622 C 510.647 885.309 502.624 887.936 495.695 890.026 C 489.727 824.463 487.978 756.484 482.928 690.808 C 494.556 688.594 521.38 678.252 534.566 674.543 C 565.352 665.884 597.454 656.219 628.594 649.172 z"/>
<path transform="translate(0,0)" fill="rgb(248,248,247)" d="M 701.777 1167.17 C 716.358 1171.28 735.423 1178.61 750.158 1183.52 C 777.054 1192.64 802.741 1201.66 829.587 1211.39 C 841.468 1215.7 865.973 1228.42 877.959 1228.7 C 883.256 1228.83 904.272 1220.1 911.071 1217.95 C 922.072 1214.52 933.353 1212.07 944.784 1210.63 C 984.372 1205.64 1039.4 1211.94 1072.63 1236.28 C 1090.46 1249.33 1087.75 1264.29 1074.76 1279.41 C 1030.32 1320.1 935.274 1315.91 889.54 1279.56 C 874.518 1267.62 863.023 1246.74 845.388 1238.66 C 798.563 1217.22 747.522 1203.83 698.171 1189.41 C 702.816 1179.25 702.475 1178.19 701.777 1167.17 z"/>
<path transform="translate(0,0)" fill="rgb(122,124,124)" d="M 1063.33 1276.98 L 1064.06 1277.26 L 1063.93 1278.41 C 1032.35 1300.04 992.237 1305.15 955.138 1298.43 L 953.509 1297.84 C 956.91 1296.88 974.574 1298.53 979.427 1298.6 C 1013.34 1299.08 1034.44 1292.95 1063.33 1276.98 z"/>
<path transform="translate(0,0)" fill="rgb(164,163,163)" d="M 1499.29 815.686 C 1547.58 834.544 1584.88 876.261 1605.76 923.1 C 1613.5 940.478 1623.13 971.501 1617.55 990.345 L 1616.8 989.982 C 1610.83 965.713 1586.37 919.836 1568.42 903.14 C 1584.76 948.7 1591.17 984.638 1577.7 1033.3 C 1564.62 1019.65 1553.28 1009.38 1539.18 996.787 C 1511.44 976.24 1497.69 964.768 1466.45 947.359 C 1463.42 928.268 1457.68 886.845 1447.91 870.96 C 1458.7 863.699 1468.44 854.45 1478.16 845.752 C 1487.18 834.913 1491.86 827.653 1499.29 815.686 z"/>
<path transform="translate(0,0)" fill="rgb(57,57,56)" d="M 1447.91 870.96 C 1458.7 863.699 1468.44 854.45 1478.16 845.752 C 1505.5 864.48 1531.1 923.107 1535.64 955.143 C 1536.92 964.114 1541.4 988.503 1539.18 996.787 C 1511.44 976.24 1497.69 964.768 1466.45 947.359 C 1463.42 928.268 1457.68 886.845 1447.91 870.96 z"/>
<path transform="translate(0,0)" fill="rgb(164,163,163)" d="M 651.725 835.006 C 659.353 845.392 664.761 852.61 673.941 861.625 C 685.595 873.328 692.998 878.534 706.509 887.507 C 696.385 905.153 689.631 937.506 686.022 957.867 C 669.699 969.694 653.763 982.047 638.239 994.907 C 631.525 1000.4 617.033 1013.33 610.552 1017.32 C 602.92 1024.12 595.395 1031.05 587.979 1038.09 C 582.157 1020.5 579.749 1001.97 580.885 983.478 C 581.401 973.83 582.54 964.683 584.287 955.212 C 585.278 949.835 591.269 933.032 589.55 929.223 L 587.532 929.755 C 578.026 937.836 550.898 984.686 544.432 996.892 C 544.64 959.64 560.454 930.918 580.691 900.645 C 599.767 872.11 622.61 852.705 651.725 835.006 z"/>
<path transform="translate(0,0)" fill="rgb(57,57,56)" d="M 673.941 861.625 C 685.595 873.328 692.998 878.534 706.509 887.507 C 696.385 905.153 689.631 937.506 686.022 957.867 C 669.699 969.694 653.763 982.047 638.239 994.907 C 631.525 1000.4 617.033 1013.33 610.552 1017.32 C 611.036 1006.84 612.252 996.067 613.304 985.856 C 616.74 952.518 647.81 880.928 673.941 861.625 z"/>
<path transform="translate(0,0)" fill="rgb(248,248,247)" d="M 681.378 708.075 C 714.756 705.49 714.008 729.131 730.585 746.118 C 736.578 775.15 741.187 797.942 745.113 827.343 C 736.697 821.028 724.738 811.253 723.519 800.252 C 722.42 790.333 728.616 783.705 734.102 776.21 C 728.275 768.587 702.578 737.435 692.913 751.023 C 694.031 753.715 704.061 758.443 707.878 761.124 C 715.845 766.719 719.095 770.04 725.212 777.491 C 714.934 785.995 714.591 791.794 715.043 804.247 C 720.345 819.824 731.196 830.553 745.805 837.573 C 748.353 854.087 749.749 869.892 752.595 887.262 C 705.516 881.605 671.831 852.367 654.966 807.893 C 642.864 775.978 642.604 721.886 681.378 708.075 z"/>
<path transform="translate(0,0)" fill="rgb(164,213,234)" d="M 1595.62 878.588 C 1621.58 883.962 1644.6 889.117 1670.37 895.431 C 1669.93 902.885 1668.93 910.492 1668.22 917.94 C 1662.38 978.867 1654.51 1039.72 1648.55 1100.61 C 1636.46 1089.67 1624.34 1077.53 1612.62 1066.11 C 1604.2 1058.35 1596.25 1050.21 1587.44 1042.91 C 1598.45 1016.05 1596.87 986.301 1593.7 958.304 C 1601.16 973.658 1607.21 995.189 1616.31 1007.98 C 1617.04 1007.53 1617.75 1007.07 1618.47 1006.6 C 1625.24 1002.13 1628.84 995.528 1629.83 987.525 C 1634.64 948.688 1617.31 908.902 1595.62 878.588 z"/>
<path transform="translate(0,0)" fill="rgb(164,213,234)" d="M 575.338 883.168 L 576.244 883.164 C 576.923 884.606 568.028 897.295 566.998 897.962 C 552.705 907.226 513.258 1011.29 546.523 1011.55 C 551.436 1008.47 566.886 975.372 571.473 966.895 C 571.203 968.088 570.957 969.287 570.737 970.49 C 566.684 992.321 565.188 1026.29 578.684 1044.99 C 575.942 1048.97 566.719 1056.32 562.581 1059.85 C 550.346 1070.3 539.712 1078.57 529.627 1091.2 C 524.375 1089.23 519.144 1087.2 513.934 1085.12 C 511.404 1033.93 506.999 983.023 503.425 931.906 C 502.746 922.197 502.2 912.542 500.903 902.893 C 522.199 895.732 553.146 888.605 575.338 883.168 z"/>
<path transform="translate(0,0)" fill="rgb(248,248,247)" d="M 910.074 1889.27 C 928.467 1893.96 944.344 1900.79 964.701 1905.13 C 1058.03 1925 1134.1 1919.52 1223.58 1890.47 C 1221.2 1898.49 1219.98 1901.63 1214.66 1908.02 C 1157.12 1956.23 992.442 1950.2 929.139 1914.26 C 917.481 1907.65 913.227 1901.46 910.074 1889.27 z"/>
<path transform="translate(0,0)" fill="rgb(248,248,247)" d="M 1176.35 1063.11 C 1177.3 1063.18 1176.68 1063.06 1178.04 1063.94 C 1176.86 1067.24 1172.79 1071.91 1170.34 1075.1 C 1151.47 1099.63 1115.76 1128.26 1084.59 1133.18 C 1067.2 1135.92 1038.22 1117.76 1024.74 1107.17 C 1012.07 1095.52 1008.52 1091.33 1000.49 1076.12 C 1069.07 1097.07 1111.92 1082.22 1176.35 1063.11 z"/>
<path transform="translate(0,0)" fill="rgb(248,248,247)" d="M 1426.23 1321.62 C 1478.74 1356.43 1486.28 1396.83 1543.74 1342.76 C 1552.77 1350.38 1560.82 1357.15 1570.32 1364.2 C 1561.97 1371.93 1555.46 1380.6 1548.33 1389.45 C 1536.88 1390.16 1519.86 1389.49 1507.78 1389.54 L 1425.7 1390.01 C 1426.23 1367.22 1426.41 1344.42 1426.23 1321.62 z"/>
<path transform="translate(0,0)" fill="rgb(248,248,247)" d="M 441.879 1079.13 C 469.761 1077.17 563.795 1116.25 590.653 1130.14 L 567.756 1132.19 C 551.106 1132.29 529.484 1141.6 514.811 1137.22 C 491.476 1130.27 462.602 1125.51 440.53 1115.88 C 421.52 1107.59 424.761 1089.5 441.879 1079.13 z"/>
<path transform="translate(0,0)" fill="rgb(248,248,247)" d="M 1516.37 605.294 C 1556.41 612.918 1661.78 638.449 1693.87 657.239 C 1693.92 664.087 1693.6 671.078 1693.37 677.936 C 1651.53 662.189 1604.72 650.202 1561.14 639.797 C 1547.95 636.65 1526.49 631.682 1513.64 630.846 C 1514.71 622.347 1515.62 613.827 1516.37 605.294 z"/>
<path transform="translate(0,0)" fill="rgb(248,248,247)" d="M 1340.6 1403.18 C 1361.86 1404.25 1383.83 1403.79 1405.2 1403.84 C 1449.39 1404.05 1493.57 1403.8 1537.75 1403.07 C 1530.53 1410.04 1524.25 1416.65 1516.72 1423.59 L 1508.76 1422.57 C 1474.4 1417.67 1437.87 1417.81 1418.51 1452.16 C 1391.26 1427.96 1372.47 1419.03 1340.6 1403.18 z"/>
<path transform="translate(0,0)" fill="rgb(248,248,247)" d="M 626.911 614.282 C 628.628 616.063 630.33 633.364 630.973 637.612 C 622.062 638.647 599.688 644.594 590.622 647.07 C 556.85 656.295 518.824 666.435 486.226 679.143 L 484.043 679.429 C 481.39 675.958 483.169 663.196 483.573 657.954 C 521.634 639.094 584.575 623.695 626.911 614.282 z"/>
<path transform="translate(0,0)" fill="rgb(248,248,247)" d="M 758.704 1322.93 C 760.272 1324.78 760.757 1383.85 760.957 1390.28 C 716.621 1388.83 662.786 1389.76 617.91 1390.12 L 623.323 1379.35 C 625.426 1376.59 641.729 1369.7 647.079 1366.8 C 653.156 1372.63 666.426 1385.15 674.472 1384.46 C 697.895 1382.44 741.925 1338.76 758.704 1322.93 z"/>
<path transform="translate(0,0)" fill="rgb(164,213,234)" d="M 1436.69 877.969 L 1438.02 877.987 C 1442.53 881.482 1450.48 934.564 1451.67 942.49 C 1435.42 933.851 1420.59 929.589 1402.78 924.994 C 1391.9 921.903 1380.82 919.604 1369.61 918.114 C 1374 909.073 1377.83 898.801 1380.93 889.246 C 1401.92 891.961 1417.91 886.31 1436.69 877.969 z"/>
<path transform="translate(0,0)" fill="rgb(248,248,247)" d="M 1138.2 449.764 C 1139.87 451.272 1145.39 463.966 1147.47 468.518 C 1158.37 492.402 1173.33 514.765 1188.4 536.146 C 1191.99 541.24 1214.07 566.809 1214.51 568.621 L 1211.76 568.455 C 1193.13 568.06 1183.83 569.479 1165.94 574.408 C 1153.04 532.45 1141.77 494.04 1138.2 449.764 z"/>
<path transform="translate(0,0)" fill="rgb(248,248,247)" d="M 609.574 1089.34 C 623.892 1090.11 630.984 1092.54 642.435 1101.84 C 648.925 1107.12 662.102 1126.65 654.322 1133.96 C 648.508 1134.26 635.498 1131.12 629.211 1129.84 C 617.555 1127.85 582.157 1119.57 579.438 1107.65 C 581.202 1095.82 599.49 1090.76 609.574 1089.34 z"/>
<path transform="translate(0,0)" fill="rgb(164,213,234)" d="M 715.64 892.594 C 731.767 899.485 736.964 900.289 754.617 900.969 C 755.697 907.013 759.161 918.02 760.932 924.281 C 750.388 926.647 740.628 930.824 730.731 935.021 C 719.321 940.095 710.694 944.759 700.104 951.193 C 705.154 930.568 709.559 913.06 715.64 892.594 z"/>
<path transform="translate(0,0)" fill="rgb(164,163,163)" d="M 1257.89 592.533 C 1265.77 594.069 1283.83 603.944 1282.86 612.745 C 1276.33 614.045 1262.81 600.663 1257.45 596.013 L 1257.89 592.533 z"/>
<path transform="translate(0,0)" fill="rgb(164,163,163)" d="M 828.423 619.57 C 830.409 619.906 829.558 619.443 830.929 621.048 C 830.761 626.761 830.582 633.816 825.855 637.428 C 818.606 630.559 822.4 625.057 828.423 619.57 z"/>
<path transform="translate(0,0)" fill="rgb(135,193,218)" d="M 1529.66 1330.54 C 1532.91 1333.08 1532.14 1331.54 1533 1334.76 C 1530.3 1339.21 1523.95 1343.52 1519.57 1347.16 L 1518.05 1348.53 L 1517.81 1347.35 C 1521.66 1340.72 1524.92 1336.64 1529.66 1330.54 z"/>
<path transform="translate(0,0)" fill="rgb(164,163,163)" d="M 1244.1 584.997 C 1249.41 587.43 1253.28 588.884 1257.89 592.533 L 1257.45 596.013 C 1253.59 592.537 1248.21 588.375 1244.1 584.997 z"/>
</svg>